<svg xmlns="http://www.w3.org/2000/svg" viewBox="0 0 36 24">
    <rect width="36" height="24" rx="6"/>
    <path fill-rule="evenodd" d="m23.698 7.88-.32 1.866c-.956-.534-3.135-.66-3.135.323 0 .39.493.66 1.087.983.9.491 2.034 1.109 2.034 2.471 0 2.177-2.302 2.977-3.829 2.977-1.525 0-2.524-.491-2.524-.491l.332-1.952c.916.744 3.691.955 3.691-.225 0-.495-.546-.788-1.18-1.127-.874-.468-1.914-1.024-1.914-2.327 0-2.387 2.636-2.878 3.746-2.878 1.027 0 2.012.38 2.012.38Zm7.463 8.47h-2.054l-.262-1.291h-2.843l-.466 1.291h-2.332l3.336-8.047s.202-.648 1.033-.648h1.797l1.791 8.695ZM11.515 7.656l-2.133 5.98-.252-1.288-.752-3.91s-.091-.782-1.061-.782H3.79l-.041.147s1.078.227 2.34.994l1.943 7.553h2.33l3.559-8.694h-2.408Zm4.118 8.694h-2.237l1.398-8.694h2.237l-1.398 8.694Zm11.013-3.076 1.175-3.253.661 3.253h-1.836Z" clip-rule="evenodd"/>
    <path d="m9.13 12.348-.752-3.91s-.091-.783-1.061-.783H3.79l-.041.148s1.694.355 3.32 1.686c1.553 1.273 2.06 2.86 2.06 2.86Z"/>
</svg>
