<svg xmlns="http://www.w3.org/2000/svg" viewBox="0 0 24 24">
    <path d="M17 17c-1.2 0-2.258-.379-3.175-1.137-.917-.759-1.492-1.713-1.725-2.863H6.8c-.2.45-.508.812-.925 1.087A2.443 2.443 0 0 1 4.5 14.5c-.7 0-1.292-.242-1.775-.725C2.242 13.292 2 12.7 2 12s.242-1.292.725-1.775C3.208 9.742 3.8 9.5 4.5 9.5c.5 0 .958.137 1.375.412.417.275.725.638.925 1.088h5.3c.233-1.15.808-2.104 1.725-2.863A4.837 4.837 0 0 1 17 7c1.383 0 2.563.487 3.538 1.462C21.513 9.437 22 10.617 22 12s-.487 2.562-1.462 3.537C19.563 16.512 18.383 17 17 17Zm0-2c.833 0 1.542-.292 2.125-.875A2.893 2.893 0 0 0 20 12c0-.833-.292-1.542-.875-2.125A2.893 2.893 0 0 0 17 9c-.833 0-1.542.292-2.125.875A2.893 2.893 0 0 0 14 12c0 .833.292 1.542.875 2.125A2.893 2.893 0 0 0 17 15Z"/>
</svg>
