<svg xmlns="http://www.w3.org/2000/svg" viewBox="0 0 36 24">
    <g clip-path="url(#a)">
        <path d="M0 0H36.294V24H0z"/>
        <path fill-rule="evenodd" d="m11.547 10.913-.23.572h-1.35l-.23-.55v.55H7.148l-.275-.732H6.21l-.298.732H3.44L5.522 7h1.993l.275.526V7h2.337l.526 1.144L11.158 7h7.445c.344 0 .642.069.87.252V7h2.04v.252c.343-.184.778-.252 1.283-.252h2.955l.275.526V7h2.177l.32.526V7h2.13v4.485H28.5l-.412-.686v.686h-2.68l-.298-.732h-.665l-.298.732H22.75a2.75 2.75 0 0 1-1.237-.274v.274H18.19v-1.03c0-.137-.023-.16-.114-.16h-.115v1.19h-6.415v-.572Zm20.519 1.605c.237.004.494.002.494.002v2.82s-.054.607-.166.829c-.222.505-.695.625-.695.625-.297.137-.71.206-1.122.206h-1.779v-.275c-.229.184-.641.275-1.03.275H21.49v-1.03c0-.137-.023-.137-.137-.137h-.115V17h-2.062v-1.213c-.343.16-.733.16-1.077.16h-.229V17h-2.52l-.595-.686-.665.686h-4.055v-4.485h4.124l.595.686.642-.686h2.772c.32 0 .848.046 1.077.275v-.275h2.474c.252 0 .733.046 1.054.275v-.275h3.734v.275c.207-.183.596-.275.94-.275h2.084v.275c.23-.16.55-.275.963-.275h1.205c.184 0 .191 0 .367.003Z" clip-rule="evenodd"/>
        <path fill-rule="evenodd" d="M28.733 10.963 27.29 8.56v2.403h-1.558l-.298-.71h-1.603l-.298.71h-.894c-.366 0-.848-.092-1.122-.366-.252-.275-.39-.641-.39-1.213 0-.48.069-.916.412-1.259.23-.252.642-.366 1.169-.366h.733v.687h-.733c-.275 0-.435.045-.596.183-.137.137-.206.389-.206.732 0 .343.069.595.206.755.115.114.321.16.527.16h.344l1.1-2.517h1.145l1.283 3.02V7.76h1.191l1.352 2.22v-2.22h.779v3.204h-1.1Zm-13.127 2.31h2.451c.596 0 1.284.184 1.284 1.053 0 .893-.665 1.076-1.33 1.076h-.962v1.075H15.56l-.939-1.052-.985 1.052h-3.047v-3.203h3.092l.94 1.052.985-1.052Zm6.804.161c-.252-.137-.55-.16-.939-.16h-1.764v3.203h.779V15.31h.825c.274 0 .435.023.55.138.137.16.137.434.137.64v.39h.756v-.619c0-.297-.023-.434-.114-.595a.894.894 0 0 0-.39-.274c.206-.069.55-.343.55-.847 0-.366-.137-.572-.39-.709Zm5.43 1.099h-.412a1.16 1.16 0 0 1-.294-.045l-.004-.001c-.092-.046-.16-.115-.16-.23 0-.114.022-.182.114-.251.069-.046.16-.046.298-.046h1.42v-.686h-1.535c-.825 0-1.1.503-1.1.961 0 .942.784.963 1.466.98l.138.004c.138 0 .23.023.275.069a.349.349 0 0 1 .092.229.29.29 0 0 1-.092.206.522.522 0 0 1-.298.068H26.26v.686h1.49c.778 0 1.213-.32 1.213-1.006 0-.32-.091-.527-.229-.687-.183-.16-.458-.252-.893-.252Zm2.91 1.944h-1.49v-.686h1.49c.137 0 .252-.023.297-.069a.291.291 0 0 0 .092-.205.348.348 0 0 0-.091-.23c-.046-.045-.138-.068-.276-.068a19.09 19.09 0 0 0-.138-.004c-.682-.018-1.465-.038-1.465-.98 0-.458.298-.961 1.1-.961h1.534v.686h-1.42c-.137 0-.23 0-.298.046a.327.327 0 0 0-.114.252c0 .114.068.183.16.229h.002c.091.023.182.046.296.046h.412c.435 0 .71.09.894.251.137.16.229.366.229.687 0 .686-.436 1.006-1.215 1.006Zm-6.759-.663h1.81v.664h-2.566v-3.204h2.566v.664h-1.81v.595h1.764v.64h-1.764v.641Zm-2.566-1.167-.94.023v-.732h.94c.138 0 .275 0 .367.068.092.046.16.138.16.275a.4.4 0 0 1-.16.32c-.115.046-.23.046-.367.046Zm-4.376.114h1.009c.274 0 .458-.16.458-.434 0-.275-.183-.39-.458-.39h-1.009v.825Zm-1.947.115 1.192-1.259v2.586l-1.192-1.327Zm-3.757.297v.641h1.901l.87-.938-.847-.938h-1.924v.595h1.695v.64h-1.695Zm8.615-4.21V7.759h.778v3.204h-.778Zm-.849-3.067c-.252-.137-.527-.137-.916-.137H16.43v3.204h.756V9.796h.824c.275 0 .459.022.573.137.121.14.118.37.115.548v.482h.778v-.641c0-.275-.023-.412-.137-.572a.96.96 0 0 0-.366-.275.909.909 0 0 0 .55-.846c0-.366-.161-.573-.413-.733ZM14.094 10.3h1.787v.664h-2.566V7.759h2.566v.664h-1.787v.572h1.764v.663h-1.764v.641Zm-2.611-2.54-.94 2.174-1.008-2.174H8.298v3.02L6.992 7.76H5.847l-1.375 3.204h.825l.298-.71h1.603l.298.71h1.558V8.446l1.123 2.517h.664l1.123-2.517v2.517h.778V7.759h-1.26Zm13.15.55.526 1.258h-1.054l.527-1.259Zm-6.507.823h-.94v-.71h.94c.137 0 .297 0 .39.047.09.068.137.16.137.297 0 .137-.046.251-.137.297-.115.07-.23.07-.39.07Zm-11.202.435-.527-1.259-.527 1.259h1.054Z" clip-rule="evenodd"/>
    </g>
    <defs>
        <clipPath id="a">
            <rect width="36" height="24" rx="6"/>
        </clipPath>
    </defs>
</svg>
