<svg xmlns="http://www.w3.org/2000/svg" viewBox="0 0 24 24">
    <path d="M22 12c0 5.523-4.477 10-10 10S2 17.523 2 12 6.477 2 12 2s10 4.477 10 10Z"/>
    <path d="M8.742 16.547H7.54V8.18h1.203V16.547ZM10.508 8.18h3.25c3.094 0 4.453 2.21 4.453 4.187 0 2.149-1.68 4.188-4.438 4.188h-3.265V8.18Zm1.203 7.289h1.914c2.727 0 3.352-2.07 3.352-3.102 0-1.68-1.07-3.101-3.415-3.101h-1.851v6.203ZM8.93 6.438c0 .43-.352.789-.79.789a.792.792 0 0 1-.788-.79c0-.437.351-.789.789-.789.437 0 .789.36.789.79Z"/>
</svg>
