<svg xmlns="http://www.w3.org/2000/svg" viewBox="0 0 40 40">
    <path d="M6.833 35v-4.292h5.25L7.708 16.042c-.833-.417-1.5-1-2-1.75s-.75-1.667-.75-2.75c0-1.333.48-2.48 1.438-3.438.958-.958 2.104-1.437 3.437-1.437 1.195 0 2.202.32 3.021.958.82.639 1.368 1.486 1.646 2.542h5.833V7.958c0-.36.139-.68.417-.958a1.364 1.364 0 0 1 1-.417c.278 0 .528.097.75.292.222.195.361.43.417.708l3-2.875c.25-.25.548-.41.895-.479.347-.07.688-.02 1.021.146L34.417 7.5c.277.139.465.347.562.625.097.278.077.556-.062.833-.14.306-.348.494-.625.563-.278.07-.556.035-.834-.104l-6.291-3-4.042 3.958v2.25l4.042 4.042 6.291-3.042a1.1 1.1 0 0 1 .834-.083c.277.083.486.278.625.583a.935.935 0 0 1 .083.854 1.14 1.14 0 0 1-.625.646l-6.417 3.042c-.36.194-.722.27-1.083.229a1.692 1.692 0 0 1-.958-.438l-3-2.916c-.056.333-.195.583-.417.75-.222.167-.472.25-.75.25a1.4 1.4 0 0 1-1-.396 1.296 1.296 0 0 1-.417-.979v-2.209h-5.875c-.027.278-.117.57-.27.875-.153.306-.341.57-.563.792l8.458 16.083H28.5V35H6.833Zm3-21.333c.611 0 1.118-.201 1.521-.604.403-.403.604-.91.604-1.521 0-.583-.201-1.076-.604-1.479-.403-.403-.91-.605-1.521-.605a2.01 2.01 0 0 0-1.479.605 2.011 2.011 0 0 0-.604 1.479c0 .61.201 1.118.604 1.521.403.403.896.604 1.479.604Zm5.209 17.041h3.916l-7.625-14.625c-.055.028-.16.063-.312.105-.153.041-.27.076-.354.104l4.375 14.416Z"/>
</svg>
