<svg xmlns="http://www.w3.org/2000/svg" viewBox="0 0 40 40">
    <path d="m10.875 18.167 9.167-14.834 9.166 14.834H10.875Zm18.458 18.5c-2.055 0-3.791-.708-5.208-2.125C22.708 33.125 22 31.389 22 29.333c0-2.055.708-3.791 2.125-5.208C25.542 22.708 27.278 22 29.333 22c2.056 0 3.792.708 5.209 2.125 1.417 1.417 2.125 3.153 2.125 5.208 0 2.056-.708 3.792-2.125 5.209-1.417 1.417-3.153 2.125-5.209 2.125ZM5 35.708V22.792h12.875v12.916H5Zm24.333-1.833c1.278 0 2.354-.438 3.229-1.313s1.313-1.951 1.313-3.229c0-1.277-.438-2.354-1.313-3.229s-1.951-1.312-3.229-1.312c-1.277 0-2.354.437-3.229 1.312s-1.312 1.952-1.312 3.229c0 1.278.437 2.354 1.312 3.229s1.952 1.313 3.229 1.313Zm-21.541-.958h7.333v-7.334H7.792v7.334Zm8.041-17.542h8.375l-4.166-6.75-4.209 6.75Z"/>
</svg>
