<svg xmlns="http://www.w3.org/2000/svg" viewBox="0 0 40 40">
    <path fill-rule="evenodd" d="M20 14.227a5.772 5.772 0 1 0 0 11.546 5.772 5.772 0 1 0 0-11.546Zm0 9.527A3.759 3.759 0 0 1 16.246 20 3.759 3.759 0 0 1 20 16.246 3.759 3.759 0 0 1 23.755 20 3.759 3.759 0 0 1 20 23.755Z" clip-rule="evenodd"/>
    <path d="M27.355 13.996a1.35 1.35 0 1 1-2.7 0 1.35 1.35 0 0 1 2.7 0Z"/>
    <path fill-rule="evenodd" d="M20 8.75c-3.06 0-3.433.013-4.641.064-1.196.065-2.019.245-2.726.527a5.389 5.389 0 0 0-1.993 1.299 5.389 5.389 0 0 0-1.299 1.993c-.282.707-.462 1.53-.527 2.726C8.763 16.567 8.75 16.94 8.75 20s.013 3.433.064 4.641c.052 1.196.245 2.019.527 2.726a5.389 5.389 0 0 0 1.299 1.993 5.39 5.39 0 0 0 1.993 1.299c.72.282 1.53.462 2.726.527 1.195.051 1.581.064 4.641.064s3.433-.013 4.641-.064c1.196-.052 2.019-.245 2.726-.527a5.39 5.39 0 0 0 1.993-1.299 5.39 5.39 0 0 0 1.299-1.993c.282-.72.462-1.53.527-2.726.051-1.195.064-1.581.064-4.641s-.013-3.433-.064-4.641c-.052-1.196-.245-2.019-.527-2.726a5.39 5.39 0 0 0-1.299-1.993 5.389 5.389 0 0 0-1.993-1.299c-.72-.282-1.53-.462-2.726-.527C23.433 8.763 23.06 8.75 20 8.75Zm0 2.031c3.009 0 3.356.013 4.551.065 1.093.051 1.698.231 2.083.385.527.206.9.45 1.299.836.398.399.643.772.836 1.299.154.398.334.99.385 2.083.052 1.182.065 1.542.065 4.551 0 3.009-.013 3.356-.065 4.551-.051 1.093-.231 1.698-.385 2.083-.206.527-.45.9-.836 1.299a3.323 3.323 0 0 1-1.299.836c-.398.154-.99.334-2.083.385-1.182.052-1.542.065-4.551.065-3.009 0-3.356-.013-4.551-.065-1.093-.051-1.698-.231-2.083-.385a3.64 3.64 0 0 1-1.299-.836 3.324 3.324 0 0 1-.836-1.299c-.154-.398-.334-.99-.385-2.083-.052-1.182-.065-1.542-.065-4.551 0-3.009.013-3.356.065-4.551.051-1.093.231-1.698.385-2.083.206-.527.45-.9.836-1.299a3.324 3.324 0 0 1 1.299-.836c.398-.154.99-.334 2.083-.385 1.195-.052 1.542-.065 4.551-.065Z" clip-rule="evenodd"/>
</svg>
