<svg xmlns="http://www.w3.org/2000/svg" viewBox="0 0 40 40">
    <path d="M15.36 31.25c9.43 0 14.593-8.169 14.593-15.247 0-.227 0-.453-.014-.694a10.647 10.647 0 0 0 2.561-2.775c-.921.425-1.91.708-2.954.85a5.404 5.404 0 0 0 2.263-2.973 9.766 9.766 0 0 1-3.266 1.302C27.608 10.651 26.281 10 24.803 10c-2.832 0-5.135 2.407-5.135 5.366 0 .424.054.82.136 1.217-4.255-.212-8.036-2.364-10.57-5.606a5.551 5.551 0 0 0-.69 2.704c0 1.855.907 3.497 2.276 4.46a4.978 4.978 0 0 1-2.317-.666v.07c0 2.592 1.775 4.772 4.105 5.253-.433.128-.88.184-1.355.184-.325 0-.65-.028-.962-.099.65 2.138 2.548 3.681 4.797 3.723A9.994 9.994 0 0 1 8.72 28.9c-.407 0-.827-.014-1.22-.07a13.979 13.979 0 0 0 7.86 2.42Z"/>
</svg>
