<svg xmlns="http://www.w3.org/2000/svg" viewBox="0 0 40 40">
    <path d="M26.667 28.875c2.472 0 4.569-.868 6.291-2.604 1.723-1.736 2.584-3.826 2.584-6.271 0-2.472-.861-4.57-2.584-6.292-1.722-1.722-3.819-2.583-6.291-2.583a9.12 9.12 0 0 0-2.375.313c-.778.208-1.5.506-2.167.895a11.875 11.875 0 0 1 2.125 3.521c.5 1.292.75 2.674.75 4.146s-.25 2.854-.75 4.146a11.875 11.875 0 0 1-2.125 3.521 8.784 8.784 0 0 0 2.167.895 9.12 9.12 0 0 0 2.375.313Zm-6.667-3a8.64 8.64 0 0 0 1.625-2.687A8.83 8.83 0 0 0 22.208 20a8.776 8.776 0 0 0-.583-3.208c-.389-1-.93-1.889-1.625-2.667a8.64 8.64 0 0 0-1.625 2.687A8.83 8.83 0 0 0 17.792 20c0 1.139.194 2.208.583 3.208.389 1 .93 1.889 1.625 2.667Zm-6.667 3a9.12 9.12 0 0 0 2.375-.313 8.784 8.784 0 0 0 2.167-.895 11.875 11.875 0 0 1-2.125-3.521C15.25 22.854 15 21.472 15 20s.25-2.854.75-4.146a11.875 11.875 0 0 1 2.125-3.521 8.784 8.784 0 0 0-2.167-.895 9.12 9.12 0 0 0-2.375-.313c-2.472 0-4.569.861-6.291 2.583-1.723 1.723-2.584 3.82-2.584 6.292 0 2.445.861 4.535 2.584 6.271 1.722 1.736 3.819 2.604 6.291 2.604Zm0 2.792c-3.25 0-6.007-1.132-8.271-3.396C2.799 26.007 1.667 23.25 1.667 20c0-3.25 1.132-6.007 3.395-8.271 2.264-2.264 5.021-3.396 8.271-3.396 1.25 0 2.438.18 3.563.542 1.125.361 2.16.875 3.104 1.542.945-.667 1.98-1.18 3.104-1.542a11.583 11.583 0 0 1 3.563-.542c3.25 0 6.007 1.132 8.271 3.396 2.263 2.264 3.395 5.021 3.395 8.271 0 3.25-1.132 6.007-3.395 8.271-2.264 2.264-5.021 3.396-8.271 3.396-1.25 0-2.438-.18-3.563-.542A11.39 11.39 0 0 1 20 29.583a11.39 11.39 0 0 1-3.104 1.542 11.585 11.585 0 0 1-3.563.542Z"/>
</svg>
