<svg xmlns="http://www.w3.org/2000/svg" viewBox="0 0 40 40">
    <path d="M13.333 11.375c.39 0 .716-.132.979-.396a1.33 1.33 0 0 0 .396-.979 1.33 1.33 0 0 0-.396-.979 1.328 1.328 0 0 0-.979-.396 1.33 1.33 0 0 0-.979.396 1.33 1.33 0 0 0-.396.979c0 .389.132.715.396.979s.59.396.979.396Zm5 0c.39 0 .716-.132.979-.396a1.33 1.33 0 0 0 .396-.979 1.33 1.33 0 0 0-.396-.979 1.328 1.328 0 0 0-.979-.396 1.33 1.33 0 0 0-.979.396 1.33 1.33 0 0 0-.396.979c0 .389.132.715.396.979s.59.396.979.396ZM20 29.708c1.667 0 3.09-.57 4.271-1.708 1.18-1.139 1.771-2.528 1.771-4.167a6.05 6.05 0 0 0-.417-2.229 5.513 5.513 0 0 0-1.25-1.896L20 15.333l-4.208 4.209a6.82 6.82 0 0 0-1.354 1.937 5.05 5.05 0 0 0-.48 2.354c.056 1.64.667 3.028 1.834 4.167 1.167 1.139 2.57 1.708 4.208 1.708Zm0-2.625c-.917 0-1.694-.32-2.333-.958-.64-.639-.959-1.403-.959-2.292 0-.444.104-.881.313-1.312.208-.43.479-.799.812-1.104L20 19.25l2.25 2.25c.305.305.555.66.75 1.062.195.403.292.827.292 1.271 0 .917-.32 1.688-.959 2.313-.639.625-1.416.937-2.333.937ZM9.458 36.667c-.75 0-1.403-.278-1.958-.834-.555-.555-.833-1.208-.833-1.958V6.125c0-.75.278-1.403.833-1.958.555-.556 1.208-.834 1.958-.834h21.084c.75 0 1.403.278 1.958.834.555.555.833 1.208.833 1.958v27.75c0 .75-.278 1.403-.833 1.958-.555.556-1.208.834-1.958.834H9.458Zm0-2.792h21.084V6.125H9.458v27.75Zm0 0V6.125v27.75Z"/>
</svg>
