<svg xmlns="http://www.w3.org/2000/svg" viewBox="0 0 40 40">
    <path d="M19.375 36.625c-2.222-.055-4.312-.534-6.271-1.437A16.757 16.757 0 0 1 8 31.583a16.87 16.87 0 0 1-3.417-5.229C3.75 24.368 3.333 22.25 3.333 20c0-2.305.438-4.472 1.313-6.5.875-2.028 2.062-3.792 3.562-5.292s3.264-2.687 5.292-3.562 4.195-1.313 6.5-1.313c4.111 0 7.695 1.292 10.75 3.875 3.055 2.583 4.93 5.833 5.625 9.75h-2.833a13.745 13.745 0 0 0-2.896-5.979c-1.459-1.764-3.271-3.076-5.438-3.937v.708c0 .945-.333 1.771-1 2.479-.667.709-1.472 1.063-2.416 1.063H18.25v3.5c0 .472-.18.868-.542 1.187a1.83 1.83 0 0 1-1.25.479h-3.416V20h4.166v5.125h-2.416l-8.334-8.333c-.11.555-.194 1.097-.25 1.625A15.16 15.16 0 0 0 6.125 20c0 3.722 1.264 6.923 3.792 9.604 2.527 2.68 5.68 4.104 9.458 4.271v2.75Zm15.958-1-5.5-5.5a7.748 7.748 0 0 1-1.895.917 6.746 6.746 0 0 1-2.105.333c-2 0-3.701-.701-5.104-2.104s-2.104-3.104-2.104-5.104.701-3.702 2.104-5.105c1.403-1.403 3.104-2.104 5.104-2.104s3.702.701 5.105 2.104c1.403 1.403 2.104 3.105 2.104 5.105 0 .722-.111 1.423-.334 2.104a8.506 8.506 0 0 1-.916 1.937l5.5 5.459-1.959 1.958Zm-9.5-7c1.25 0 2.306-.43 3.167-1.292.861-.86 1.292-1.916 1.292-3.166S29.862 21.861 29 21c-.861-.861-1.917-1.292-3.167-1.292-1.25 0-2.305.43-3.166 1.292-.861.861-1.292 1.917-1.292 3.167 0 1.25.43 2.305 1.292 3.166.86.861 1.916 1.292 3.166 1.292Z"/>
</svg>
