<svg xmlns="http://www.w3.org/2000/svg" viewBox="0 0 24 24">
    <path fill-rule="evenodd" d="M23 12L19 8V11H11V13H19V16L23 12ZM21 18C19.7407 19.6791 17.985 20.9193 15.9817 21.5451C13.9783 22.1709 11.8288 22.1505 9.83772 21.4868C7.8466 20.8231 6.11478 19.5498 4.88758 17.8471C3.66037 16.1444 3 14.0988 3 12C3 9.90118 3.66037 7.85555 4.88758 6.1529C6.11478 4.45024 7.8466 3.17687 9.83772 2.51317C11.8288 1.84946 13.9783 1.82906 15.9817 2.45486C17.985 3.08067 19.7407 4.32094 21 6H18.27C17.1153 4.98166 15.6913 4.31814 14.1689 4.08906C12.6464 3.85997 11.0902 4.07506 9.68699 4.7085C8.28376 5.34194 7.09312 6.36683 6.25793 7.66019C5.42274 8.95354 4.9785 10.4604 4.9785 12C4.9785 13.5396 5.42274 15.0465 6.25793 16.3398C7.09312 17.6332 8.28376 18.6581 9.68699 19.2915C11.0902 19.9249 12.6464 20.14 14.1689 19.9109C15.6913 19.6819 17.1153 19.0183 18.27 18H21Z" clip-rule="evenodd"/>
</svg>

