<svg xmlns="http://www.w3.org/2000/svg" viewBox="0 0 32 32">
    <path d="M17.075.974c0-.579.49-1.04 1.063-.966C25.345.939 31.06 6.653 31.991 13.86c.074.574-.388 1.064-.966 1.064h-3.081c-.517 0-.944-.396-1.034-.904a11.043 11.043 0 00-8.931-8.93c-.509-.09-.904-.517-.904-1.034V.974zM14.16 5.082c.51-.089.908-.516.908-1.034V.974c0-.578-.49-1.04-1.063-.965C6.117 1.027 0 7.768 0 15.929c0 3.687 1.258 7.08 3.356 9.793.354.458 1.026.477 1.435.068l2.132-2.132c.365-.366.388-.948.09-1.37a10.981 10.981 0 01-1.998-6.335c0-5.45 3.95-9.976 9.144-10.871zM9.713 24.987c-.423-.297-1.005-.275-1.37.09L6.21 27.21c-.409.41-.39 1.081.068 1.435A15.956 15.956 0 0016.072 32c8.16 0 14.9-6.117 15.92-14.004.074-.574-.387-1.063-.966-1.063h-3.074c-.518 0-.946.397-1.034.908-.895 5.193-5.422 9.144-10.871 9.144-2.357 0-4.541-.739-6.334-1.998z"/>
</svg>
