<svg xmlns="http://www.w3.org/2000/svg" viewBox="0 0 40 40">
    <path fill-rule="evenodd" d="M39 20c0 10.493-8.507 19-19 19S1 30.493 1 20 9.507 1 20 1s19 8.507 19 19zm1 0c0 11.046-8.954 20-20 20S0 31.046 0 20 8.954 0 20 0s20 8.954 20 20zM20 10c-5.53 0-10 4.47-10 10s4.47 10 10 10 10-4.47 10-10-4.47-10-10-10zm4.3 14.3a.996.996 0 01-1.41 0L20 21.41l-2.89 2.89a.996.996 0 11-1.41-1.41L18.59 20l-2.89-2.89a.996.996 0 010-1.41.996.996 0 011.41 0L20 18.59l2.89-2.89a.996.996 0 111.41 1.41L21.41 20l2.89 2.89c.38.38.38 1.02 0 1.41z" clip-rule="evenodd"/>
</svg>
