<svg xmlns="http://www.w3.org/2000/svg" viewBox="0 0 40 40">
    <path fill-rule="evenodd" d="M39 20c0 10.493-8.507 19-19 19S1 30.493 1 20 9.507 1 20 1s19 8.507 19 19zm1 0c0 11.046-8.954 20-20 20S0 31.046 0 20 8.954 0 20 0s20 8.954 20 20zm-16.72 6.237L20 23.85l-3.28 2.387c-.52.373-1.227-.133-1.027-.747l1.254-3.853-3.24-2.307c-.534-.373-.267-1.213.386-1.213h3.974l1.306-4.027c.2-.613 1.067-.613 1.267 0l1.293 4.027h3.974c.653 0 .92.84.386 1.213l-3.24 2.307 1.254 3.853c.2.614-.507 1.134-1.027.747z" clip-rule="evenodd"/>
</svg>
