<svg width="354" height="194" viewBox="0 0 354 194" fill="none" xmlns="http://www.w3.org/2000/svg">
<g opacity="0.3">
<circle cx="352.5" cy="161.5" r="1.5" transform="rotate(-180 352.5 161.5)" fill="#4781E8"/>
<circle cx="352.5" cy="121.5" r="1.5" transform="rotate(-180 352.5 121.5)" fill="#4781E8"/>
<circle cx="352.5" cy="81.5" r="1.5" transform="rotate(-180 352.5 81.5)" fill="#4781E8"/>
<circle cx="352.5" cy="41.5" r="1.5" transform="rotate(-180 352.5 41.5)" fill="#4781E8"/>
<circle cx="352.5" cy="1.5" r="1.5" transform="rotate(-180 352.5 1.5)" fill="#4781E8"/>
<circle cx="313.5" cy="161.5" r="1.5" transform="rotate(-180 313.5 161.5)" fill="#4781E8"/>
<circle cx="313.5" cy="121.5" r="1.5" transform="rotate(-180 313.5 121.5)" fill="#4781E8"/>
<circle cx="313.5" cy="81.5" r="1.5" transform="rotate(-180 313.5 81.5)" fill="#4781E8"/>
<circle cx="313.5" cy="41.5" r="1.5" transform="rotate(-180 313.5 41.5)" fill="#4781E8"/>
<circle cx="313.5" cy="1.5" r="1.5" transform="rotate(-180 313.5 1.5)" fill="#4781E8"/>
<circle cx="274.5" cy="161.5" r="1.5" transform="rotate(-180 274.5 161.5)" fill="#4781E8"/>
<circle cx="274.5" cy="121.5" r="1.5" transform="rotate(-180 274.5 121.5)" fill="#4781E8"/>
<circle cx="274.5" cy="81.5" r="1.5" transform="rotate(-180 274.5 81.5)" fill="#4781E8"/>
<circle cx="274.5" cy="41.5" r="1.5" transform="rotate(-180 274.5 41.5)" fill="#4781E8"/>
<circle cx="274.5" cy="1.5" r="1.5" transform="rotate(-180 274.5 1.5)" fill="#4781E8"/>
<circle cx="235.5" cy="161.5" r="1.5" transform="rotate(-180 235.5 161.5)" fill="#4781E8"/>
<circle cx="235.5" cy="121.5" r="1.5" transform="rotate(-180 235.5 121.5)" fill="#4781E8"/>
<circle cx="235.5" cy="81.5" r="1.5" transform="rotate(-180 235.5 81.5)" fill="#4781E8"/>
<circle cx="235.5" cy="41.5" r="1.5" transform="rotate(-180 235.5 41.5)" fill="#4781E8"/>
<circle cx="235.5" cy="1.5" r="1.5" transform="rotate(-180 235.5 1.5)" fill="#4781E8"/>
<circle cx="196.5" cy="161.5" r="1.5" transform="rotate(-180 196.5 161.5)" fill="#4781E8"/>
<circle cx="196.5" cy="121.5" r="1.5" transform="rotate(-180 196.5 121.5)" fill="#4781E8"/>
<circle cx="196.5" cy="81.5" r="1.5" transform="rotate(-180 196.5 81.5)" fill="#4781E8"/>
<circle cx="196.5" cy="41.5" r="1.5" transform="rotate(-180 196.5 41.5)" fill="#4781E8"/>
<circle cx="196.5" cy="1.5" r="1.5" transform="rotate(-180 196.5 1.5)" fill="#4781E8"/>
<circle cx="157.5" cy="161.5" r="1.5" transform="rotate(-180 157.5 161.5)" fill="#4781E8"/>
<circle cx="157.5" cy="121.5" r="1.5" transform="rotate(-180 157.5 121.5)" fill="#4781E8"/>
<circle cx="157.5" cy="81.5" r="1.5" transform="rotate(-180 157.5 81.5)" fill="#4781E8"/>
<circle cx="157.5" cy="41.5" r="1.5" transform="rotate(-180 157.5 41.5)" fill="#4781E8"/>
<circle cx="157.5" cy="1.5" r="1.5" transform="rotate(-180 157.5 1.5)" fill="#4781E8"/>
<circle cx="118.5" cy="161.5" r="1.5" transform="rotate(-180 118.5 161.5)" fill="#4781E8"/>
<circle cx="118.5" cy="121.5" r="1.5" transform="rotate(-180 118.5 121.5)" fill="#4781E8"/>
<circle cx="118.5" cy="81.5" r="1.5" transform="rotate(-180 118.5 81.5)" fill="#4781E8"/>
<circle cx="118.5" cy="41.5" r="1.5" transform="rotate(-180 118.5 41.5)" fill="#4781E8"/>
<circle cx="118.5" cy="1.5" r="1.5" transform="rotate(-180 118.5 1.5)" fill="#4781E8"/>
<circle cx="79.5" cy="161.5" r="1.5" transform="rotate(-180 79.5 161.5)" fill="#4781E8"/>
<circle cx="79.5" cy="121.5" r="1.5" transform="rotate(-180 79.5 121.5)" fill="#4781E8"/>
<circle cx="79.5" cy="81.5" r="1.5" transform="rotate(-180 79.5 81.5)" fill="#4781E8"/>
<circle cx="79.5" cy="41.5" r="1.5" transform="rotate(-180 79.5 41.5)" fill="#4781E8"/>
<circle cx="79.5" cy="1.5" r="1.5" transform="rotate(-180 79.5 1.5)" fill="#4781E8"/>
<circle cx="40.5" cy="161.5" r="1.5" transform="rotate(-180 40.5 161.5)" fill="#4781E8"/>
<circle cx="40.5" cy="121.5" r="1.5" transform="rotate(-180 40.5 121.5)" fill="#4781E8"/>
<circle cx="40.5" cy="81.5" r="1.5" transform="rotate(-180 40.5 81.5)" fill="#4781E8"/>
<circle cx="40.5" cy="41.5" r="1.5" transform="rotate(-180 40.5 41.5)" fill="#4781E8"/>
<circle cx="40.5" cy="1.5" r="1.5" transform="rotate(-180 40.5 1.5)" fill="#4781E8"/>
<circle cx="1.5" cy="161.5" r="1.5" transform="rotate(-180 1.5 161.5)" fill="#4781E8"/>
<circle cx="1.5" cy="121.5" r="1.5" transform="rotate(-180 1.5 121.5)" fill="#4781E8"/>
<circle cx="1.5" cy="81.5" r="1.5" transform="rotate(-180 1.5 81.5)" fill="#4781E8"/>
<circle cx="1.5" cy="41.5" r="1.5" transform="rotate(-180 1.5 41.5)" fill="#4781E8"/>
<circle cx="1.5" cy="1.5" r="1.5" transform="rotate(-180 1.5 1.5)" fill="#4781E8"/>
</g>
</svg>
