<svg width="350" height="980" viewBox="0 0 350 980" fill="none" xmlns="http://www.w3.org/2000/svg">
<g opacity="0.05">
<path d="M80.3279 -16L80.3279 41.3397L177.869 41.3397L177.869 150.285L231.421 150.285L231.421 41.3397L294.536 41.3397L294.536 180.866L348.087 180.866L348.087 -16L80.3279 -16Z" fill="#4781E8"/>
<path d="M124.317 287.841C124.317 261.082 145.355 240.058 174.044 240.058C202.732 240.058 223.77 261.082 223.77 287.841C223.77 314.599 202.732 335.624 174.044 335.624C145.355 335.624 124.317 314.599 124.317 287.841ZM174.044 188.452C120.492 188.452 76.5027 232.412 76.5027 287.841C76.5027 343.269 120.492 387.23 174.044 387.23C227.596 387.23 271.585 343.269 271.585 287.841C271.585 232.412 227.596 188.452 174.044 188.452Z" fill="#4781E8"/>
<path d="M80.3279 425.396L80.3279 477.002L168.306 477.002C198.907 477.002 218.033 496.115 218.033 520.962C218.033 532.43 216.12 538.164 216.12 538.164L271.585 538.164L271.585 534.342C271.585 498.027 240.984 478.913 240.984 478.913L240.984 477.002L267.76 477.002L267.76 425.396L80.3279 425.396Z" fill="#4781E8"/>
<path d="M80.3279 570.612L80.3279 622.218L183.607 622.218C206.557 622.218 221.858 637.508 221.858 658.533C221.858 677.646 210.382 689.114 189.344 689.114L80.3279 689.114L80.3278 740.72L183.607 740.72C206.557 740.72 221.858 756.01 221.858 777.035C221.858 796.148 210.382 807.616 189.344 807.616L80.3278 807.616L80.3278 859.222L196.994 859.222C242.896 859.222 271.585 830.552 271.585 794.237C271.585 754.099 239.071 733.075 239.071 733.075L239.071 731.163C239.071 731.163 271.585 715.873 271.585 675.735C271.585 639.42 240.984 624.129 240.984 624.129L240.984 622.218L267.76 622.218L267.76 570.612L80.3279 570.612Z" fill="#4781E8"/>
<path d="M80.3278 908.827L80.3278 960.432L267.76 960.432L267.76 908.827L80.3278 908.827ZM321.311 905.004C306.011 905.004 292.623 918.383 292.623 934.439C292.623 950.876 306.011 964.255 321.311 964.255C336.612 964.255 350 950.876 350 934.821C350 918.383 336.612 905.004 321.311 905.004Z" fill="#4781E8"/>
<path d="M80.3278 1009.99L80.3278 1061.6L179.781 1061.6C204.645 1061.6 221.858 1078.8 221.858 1101.74C221.858 1122.76 208.47 1136.14 185.519 1136.14L80.3278 1136.14L80.3278 1187.75L193.169 1187.75C240.984 1187.75 271.585 1157.16 271.585 1118.94C271.585 1082.62 240.984 1063.51 240.984 1063.51L240.984 1061.6L267.76 1061.6L267.76 1009.99L80.3278 1009.99Z" fill="#4781E8"/>
<path d="M131.967 1321.43C131.967 1296.59 151.093 1277.47 177.869 1277.47C204.645 1277.47 223.77 1296.59 223.77 1321.43C223.77 1346.28 204.645 1365.39 177.869 1365.39C151.093 1365.39 131.967 1346.28 131.967 1321.43ZM38.2513 1233.51C38.2513 1233.51 -2.527e-05 1260.27 -2.76929e-05 1315.7C-3.02828e-05 1374.95 42.0765 1417 99.4535 1417L267.76 1417L267.76 1365.39L240.984 1365.39L240.984 1363.48C240.984 1363.48 271.585 1346.28 271.585 1306.14C271.585 1264.09 233.333 1225.87 177.869 1225.87C122.404 1225.87 84.153 1264.09 84.153 1306.14C84.153 1346.28 114.754 1363.48 114.754 1363.48L114.754 1365.39L99.4535 1365.39C68.8524 1365.39 47.8142 1344.37 47.8142 1315.7C47.8142 1285.12 70.765 1266.01 70.765 1266.01L38.2513 1233.51Z" fill="#4781E8"/>
</g>
</svg>
