<svg width="3202" height="249" viewBox="0 0 3202 249" fill="none" xmlns="http://www.w3.org/2000/svg">
<path d="M1919 52C1981 9 2025.5 2.5 2102.5 2.5C2195.5 2.5 2274.5 133 2449.5 133C2624.5 133 2596.5 247 2767 247C2937.5 247 2909 133 3200 133" stroke="#4781E8" stroke-width="4" stroke-linecap="round" stroke-linejoin="round"/>
<path d="M1925.5 47.5C1872 84 1780 184.5 1581.5 184.5C1383 184.5 1352.5 65.5 1147 65.5C941.5 65.5 944 177.5 770 177.5C617.5 177.5 618 60.5 475.5 60.5C333 60.5 377.5 119 242 119C106.5 119 144 74 2 74" stroke="#4781E8" stroke-width="4" stroke-linecap="round" stroke-linejoin="round"/>
</svg>
