<svg width="3715" height="248" viewBox="0 0 3715 248" fill="none" xmlns="http://www.w3.org/2000/svg">
<path fill-rule="evenodd" clip-rule="evenodd" d="M2440.59 43.3164C2498.16 5.85357 2542.39 0 2615.5 0C2639.22 0 2661.94 8.35531 2685.28 20.7008C2701.29 29.1696 2717.74 39.5996 2735.07 50.5886C2742.95 55.5862 2751.01 60.6994 2759.3 65.7964C2812.44 98.4776 2875.55 131 2962.5 131C3006.48 131 3037.81 138.101 3062.75 148.819C3087.66 159.526 3106.08 173.803 3124.17 187.923L3124.81 188.428C3142.7 202.395 3160.33 216.158 3183.88 226.513C3207.67 236.979 3237.61 244 3280 244C3353.36 244 3389.45 222.823 3430.77 198.579C3437.12 194.856 3443.58 191.06 3450.33 187.258C3501.2 158.587 3567.16 130 3713 130C3714.1 130 3715 130.895 3715 132C3715 133.105 3714.1 134 3713 134C3567.84 134 3502.55 162.413 3452.29 190.742C3445.61 194.513 3439.17 198.29 3432.84 202.006C3391.43 226.316 3354.49 248 3280 248C3237.14 248 3206.64 240.896 3182.27 230.174C3158.26 219.617 3140.3 205.59 3122.47 191.675L3121.71 191.077C3103.61 176.947 3085.56 162.974 3061.17 152.494C3036.81 142.024 3006.02 135 2962.5 135C2874.45 135 2810.56 102.022 2757.2 69.2036C2748.8 64.0337 2740.67 58.8803 2732.76 53.8635C2715.51 42.9218 2699.28 32.6304 2683.41 24.2367C2660.31 12.0197 2638.28 4 2615.5 4C2542.74 4 2499.41 9.81128 2442.76 46.6763L2442.73 46.6909L2439.63 48.6521C2439.62 48.6586 2439.61 48.665 2439.6 48.6714C2431.33 54.3138 2422.11 61.5161 2411.69 69.6576C2355.02 113.937 2262.8 186 2094.5 186C1995.63 186 1938.16 156.582 1880.5 127.067L1878.96 126.28C1820.92 96.5694 1762.26 67 1660 67C1557.74 67 1507.36 94.819 1460.71 122.716C1458.77 123.882 1456.82 125.047 1454.89 126.211C1410.18 153.043 1366.94 179 1283 179C1244.6 179 1215.75 171.63 1191.85 160.533C1167.98 149.452 1149.12 134.685 1130.75 120.065C1130.14 119.577 1129.53 119.09 1128.92 118.603C1092.87 89.8957 1057.84 62 988.5 62C953.008 62 929.281 65.6743 911.541 71.1304C893.82 76.5806 881.973 83.8361 870.184 91.1965L869.256 91.7762C857.756 98.9595 846.14 106.216 829.225 111.684C811.862 117.298 789.017 121 755 121C721.013 121 697.785 118.116 679.833 113.756C662.306 109.5 649.877 103.851 637.527 98.2376L636.61 97.8209C623.975 92.0805 611.266 86.4009 592.899 82.1357C574.517 77.8668 550.395 75 515 75H2C0.89543 75 0 74.1046 0 73C0 71.8954 0.89543 71 2 71H515C550.605 71 575.046 73.8832 593.804 78.2393C612.578 82.5991 625.587 88.4195 638.265 94.1791L639.125 94.5703C651.483 100.187 663.62 105.702 680.777 109.869C698.34 114.134 721.237 117 755 117C788.733 117 811.138 113.327 827.994 107.878C844.436 102.563 855.694 95.5311 867.211 88.3372L868.066 87.8035C879.902 80.4139 892.117 72.9194 910.365 67.3071C928.594 61.7007 952.742 58 988.5 58C1059.24 58 1095.2 86.6375 1131.35 115.423C1131.98 115.927 1132.61 116.431 1133.25 116.935C1151.63 131.565 1170.15 146.048 1193.53 156.905C1216.88 167.745 1245.15 175 1283 175C1365.83 175 1408.28 149.516 1452.85 122.769C1454.78 121.609 1456.72 120.447 1458.66 119.284C1505.64 91.181 1556.76 63 1660 63C1763.24 63 1822.58 92.9306 1880.79 122.72L1882.27 123.48C1939.83 152.945 1996.59 182 2094.5 182C2261.31 182 2352.43 110.85 2409.13 66.5725C2419.64 58.3667 2428.97 51.0838 2437.37 45.3479C2437.39 45.3346 2437.41 45.3217 2437.43 45.3091L2440.58 43.3237C2440.58 43.3212 2440.58 43.3188 2440.59 43.3164Z" fill="#4781E8"/>
</svg>
