<svg width="2341" height="427" viewBox="0 0 2341 427" fill="none" xmlns="http://www.w3.org/2000/svg">
<g opacity="0.05">
<path d="M0 421.069H89.2137L89.2137 284.667H175.454C264.667 284.667 324.143 225.361 324.143 145.299C324.143 65.2361 264.667 5.93055 175.454 5.93055L0 5.93055L0 421.069ZM89.2137 201.639L89.2137 88.9584L172.48 88.9584C208.165 88.9584 231.956 112.681 231.956 145.299C231.956 177.917 208.165 201.639 172.48 201.639H89.2137Z" fill="#4781E8"/>
<path d="M380.738 421.069H461.03L461.03 5.93055L380.738 5.93055L380.738 421.069Z" fill="#4781E8"/>
<path d="M705.113 421.069C722.956 421.069 785.406 421.069 785.406 421.069L785.406 240.187C785.406 174.951 734.851 124.542 660.507 124.542C583.188 124.542 541.555 180.882 541.555 180.882L589.136 228.326C589.136 228.326 612.926 195.708 654.559 195.708C684.297 195.708 702.14 213.5 705.113 234.257L612.926 250.863C559.398 260.351 526.686 296.528 526.686 343.972C526.686 391.417 562.372 427 615.9 427C672.402 427 702.14 385.486 702.14 385.486H705.113V421.069ZM705.113 296.528C705.113 335.076 678.349 361.764 642.664 361.764C618.874 361.764 606.978 349.903 606.978 332.111C606.978 317.285 618.874 306.017 639.69 302.458L705.113 290.597V296.528Z" fill="#4781E8"/>
<path d="M880.73 320.25C880.73 388.451 919.389 427 978.865 427C1008.6 427 1032.39 418.104 1032.39 418.104V343.972C1032.39 343.972 1017.52 349.903 999.681 349.903C975.891 349.903 961.022 335.076 961.022 308.389V210.535L1026.45 210.535V136.403L961.022 136.403V47.4444L889.651 47.4444V100.819C889.651 124.542 877.756 136.403 856.939 136.403H830.175V210.535H880.73V320.25Z" fill="#4781E8"/>
<path d="M1112.92 421.069H1193.21V210.535H1258.63V136.403H1193.21V118.611C1193.21 91.9236 1208.08 77.0972 1231.87 77.0972C1249.71 77.0972 1264.58 83.0278 1264.58 83.0278V8.89583C1264.58 8.89583 1240.79 0 1211.05 0C1151.58 0 1112.92 38.5486 1112.92 106.75V136.403H1068.31V210.535H1112.92V421.069Z" fill="#4781E8"/>
<path d="M1452 352.868C1410.37 352.868 1377.65 320.25 1377.65 275.771C1377.65 231.292 1410.37 198.674 1452 198.674C1493.63 198.674 1526.34 231.292 1526.34 275.771C1526.34 320.25 1493.63 352.868 1452 352.868ZM1297.36 275.771C1297.36 358.799 1365.76 427 1452 427C1538.24 427 1606.64 358.799 1606.64 275.771C1606.64 192.743 1538.24 124.542 1452 124.542C1365.76 124.542 1297.36 192.743 1297.36 275.771Z" fill="#4781E8"/>
<path d="M1666.02 421.069H1746.31V284.667C1746.31 237.222 1776.05 207.569 1814.71 207.569C1832.55 207.569 1841.47 210.535 1841.47 210.535V124.542H1835.53C1779.02 124.542 1749.29 171.986 1749.29 171.986H1746.31V130.472L1666.02 130.472V421.069Z" fill="#4781E8"/>
<path d="M1891.96 421.069L1972.25 421.069V260.944C1972.25 225.361 1996.04 201.639 2028.75 201.639C2058.49 201.639 2076.33 219.431 2076.33 252.049V421.069H2156.62V260.944C2156.62 225.361 2180.42 201.639 2213.13 201.639C2242.86 201.639 2260.71 219.431 2260.71 252.049V421.069L2341 421.069V240.187C2341 169.021 2296.39 124.542 2239.89 124.542C2177.44 124.542 2144.73 174.951 2144.73 174.951H2141.76C2141.76 174.951 2117.97 124.542 2055.52 124.542C1999.01 124.542 1975.22 171.986 1975.22 171.986H1972.25V130.472H1891.96V421.069Z" fill="#4781E8"/>
</g>
</svg>
