<svg width="426" height="400" viewBox="0 0 426 400" fill="none" xmlns="http://www.w3.org/2000/svg">
<g clip-path="url(#clip0)">
<path fill-rule="evenodd" clip-rule="evenodd" d="M287.922 1.8101C180.974 13.0768 69.5648 69.9827 25.4331 135.864C-20.4597 204.386 -4.38128 269.194 74.7835 334.813C156.641 402.65 243.24 418.699 305.235 377.508C396.263 317.021 456.657 112.575 405.482 38.1481C383.3 5.89188 349.191 -4.6507 287.922 1.8101ZM1897.15 92.7149C1847.79 100.624 1822.83 134.353 1821.23 195.293C1819.3 269.098 1851.8 308.635 1914.41 308.65C1983.52 308.666 2023.49 247.464 2006.2 168.113C1994.34 113.657 1951.47 84.0183 1897.15 92.7149ZM2883.13 93.232C2863.27 96.5898 2847.71 103.043 2835.14 113.108C2782.64 155.19 2783.33 257.656 2836.37 292.523C2865.84 311.889 2916.23 314.849 2959.48 299.755L2968.78 296.509L2969.12 248.554L2969.47 200.599H2930.28H2891.1V207.228V213.863H2922.3H2953.51V250.4V286.929L2948.61 288.981C2923.43 299.485 2878.14 297.431 2853.85 284.685C2796.43 254.554 2799.97 144.219 2859.27 115.288C2885.27 102.613 2919.37 101.897 2948.61 113.41C2962.25 118.781 2961.31 118.908 2964.33 111.214C2967.38 103.504 2967.38 103.512 2955.5 99.8679C2933.34 93.0729 2901.37 90.1449 2883.13 93.232ZM553.318 95.3326C519.137 101.491 502.844 121.16 502.844 156.241V174.868L507.856 185.013C515.432 200.329 528.739 209.916 561.533 223.714C587.037 234.439 595.761 243.828 589.068 253.368C579.276 267.324 544.204 264.388 502.51 246.128C501.21 245.563 500.852 250.981 500.852 270.816V296.223L507.991 299.493C554.999 320.984 625.774 306.566 641.917 272.209C658.919 236.006 643.933 201.036 603.155 181.79C561.588 162.176 559.278 160.641 559.278 152.7C559.278 137.4 582.065 135.681 618.316 148.236C625.599 150.759 631.925 152.381 632.387 151.849C633.216 150.886 648.25 109.607 648.25 108.302C648.25 106.997 631.542 99.8918 623.783 97.8868C604.668 92.9615 572.87 91.8079 553.318 95.3326ZM1014.28 128.655C993.035 192.761 956.321 304.999 956.321 305.841C956.321 306.311 970.655 306.685 988.167 306.685H1020.01L1020.85 303.041C1021.3 301.036 1023.04 293.724 1024.71 286.794C1026.38 279.864 1028.12 272.559 1028.58 270.554L1029.41 266.903H1063.2H1096.99L1100.28 277.843C1103.31 287.971 1104.82 293.668 1106.93 303.041L1107.76 306.685H1139.61C1157.12 306.685 1171.44 306.311 1171.44 305.841C1171.44 304.999 1134.74 192.761 1113.49 128.655L1102.17 94.5131H1063.88H1025.6L1014.28 128.655ZM688.088 201.26V306.685H711.974H735.869L736.212 234.51L736.554 162.328L755.055 226.22C765.229 261.364 774.662 293.844 776.033 298.403L778.511 306.685H806.269H834.028L836.49 298.403C837.844 293.844 846.991 261.659 856.807 226.873L874.654 163.64L874.997 235.163L875.347 306.685H901.887H928.434V201.26V95.8339H889.999H851.564L846.936 110.753C844.386 118.964 834.426 151.634 824.802 183.358C815.177 215.089 807.177 241.186 807.018 241.361C806.866 241.536 798.199 212.59 787.745 177.048C777.3 141.498 767.612 108.684 766.209 104.125L763.668 95.8339H725.878H688.088V201.26ZM1201.99 201.173V306.685H1229.88H1257.77V268.828V230.97L1265.22 231.368L1272.69 231.765L1294.25 268.891L1315.81 306.025L1348.54 306.383C1366.53 306.574 1381.25 306.439 1381.25 306.08C1381.25 305.723 1368.39 285.711 1352.66 261.619C1319.16 210.306 1321.49 214.898 1327.15 211.404C1366.41 187.176 1365.93 125.735 1326.35 107.005C1306.1 97.4253 1300.98 96.7091 1248.8 96.1521L1201.99 95.6509V201.173ZM1391.88 119.044V142.253H1417.11H1442.34V224.469V306.685H1471.55H1500.77V224.469V142.253H1525.99H1551.23V119.044V95.8339H1471.55H1391.88V119.044ZM1678.7 201.26V306.685H1686.02H1693.31V259.614V212.534H1741.11H1788.92V205.906V199.27H1741.11H1693.31V154.188V109.098H1743.78H1794.24V102.47V95.8339H1736.48H1678.7V201.26ZM2065.14 201.26V306.685H2072.44H2079.73V260.91V215.128L2105.18 215.486L2130.63 215.853L2158.08 260.935L2185.53 306.025L2194.38 306.415C2199.25 306.63 2203.23 306.455 2203.23 306.025C2203.23 305.595 2190.98 284.614 2176.01 259.399C2161.04 234.193 2148.79 213.179 2148.79 212.718C2148.79 212.248 2152.83 209.813 2157.77 207.299C2202.27 184.566 2205.11 123.786 2162.61 103.608C2148.66 96.9796 2139.9 95.8816 2100.64 95.8578L2065.14 95.8339V201.26ZM2247.05 201.211V306.685H2253.69H2260.33L2260.44 212.2L2260.54 117.715L2263.9 125.011C2273.44 145.73 2306.53 226.76 2326.17 277.516L2337.21 306.025H2343.38H2349.55L2360.15 280.166C2365.98 265.939 2383.39 223.57 2398.87 186.015L2426.98 117.715L2427.32 212.2L2427.66 306.685H2434.97H2442.26V201.211V95.7305L2430.86 96.1204L2419.44 96.5023L2382.43 187.2C2362.07 237.08 2345.24 278.36 2345.03 278.925C2344.83 279.489 2327.84 238.68 2307.27 188.226L2269.88 96.5023L2258.46 96.1204L2247.05 95.7305V201.211ZM2508.65 201.26V306.685H2515.96H2523.26V201.26V95.8339H2515.96H2508.65V201.26ZM2588.33 201.196V306.685H2594.95H2601.59L2601.93 214.699L2602.27 122.704L2664.13 214.364L2726 306.025L2733.52 306.423L2741.03 306.82V201.331V95.8339H2733.74H2726.45L2726.1 187.145L2725.77 278.455L2664.55 187.479L2603.34 96.5023L2595.83 96.1044L2588.33 95.7066V201.196ZM219.25 98.5313C238.396 100.218 237.519 97.9504 227.497 119.799L223.505 128.52L207.139 125.48C177.349 119.951 161.971 122.839 153.271 135.609C144.69 148.189 150.913 156.774 179.213 171.39C211.163 187.9 218.206 208.994 202.909 242.364C189.714 271.143 135.289 287.168 89.2764 275.814C80.0023 273.53 80.0261 273.769 87.7546 257.99L94.3198 244.584L102.71 247.296C126.914 255.126 164.474 250.639 173.205 238.879C183.149 225.488 176.512 213.823 151.041 199.891C124.277 185.259 117.688 176.451 117.84 155.509C118.158 112.479 153.351 92.7069 219.25 98.5313ZM372.592 107.817C367.787 128.393 368.544 128.066 330.173 126.165C313.163 125.329 298.367 124.971 297.292 125.385C293.929 126.674 281.746 165.845 281.746 175.376C281.746 176.251 291.658 176.729 309.8 176.729H337.846L337.001 180.97C334.937 191.266 333.081 195.953 329.727 199.303L326.133 202.891L300.725 202.223L275.318 201.563L273.142 208.708C271.141 215.279 259.167 261.451 257.279 269.886L256.466 273.538H238.698H220.939L223.536 265.248C236.762 223.013 257.78 147.648 263.757 121.033C265.636 112.646 267.477 104.443 267.844 102.796L268.513 99.8123H321.488H374.464L372.592 107.817ZM1934.22 109.758C1971.78 117.707 1992.08 149.581 1992.08 200.599C1992.08 259.781 1963.26 294.71 1914.41 294.71C1871.61 294.71 1845.47 268.669 1839.33 219.894C1829.87 144.919 1871.58 96.5103 1934.22 109.758ZM2137.81 112.519C2163.23 117.762 2173.23 129.499 2173.31 154.188C2173.43 188.226 2155.37 200.599 2105.57 200.599H2081.06V155.509V110.426H2104.36C2120.41 110.426 2130.8 111.071 2137.81 112.519ZM1074.33 179.379L1084.65 218.501L1075 218.891C1069.68 219.099 1060.65 219.099 1054.93 218.891L1044.5 218.501L1053.87 177.693C1059.01 155.246 1063.4 137.639 1063.61 138.569C1063.83 139.5 1068.65 157.864 1074.33 179.379ZM1285.19 143.096C1308.58 154.188 1296.87 185.935 1269.38 185.991L1259.08 186.015V163.465V140.924H1269.84C1277.06 140.924 1282.1 141.64 1285.19 143.096Z" fill="#4781E8"/>
</g>
<defs>
<clipPath id="clip0">
<rect width="426" height="400" fill="white"/>
</clipPath>
</defs>
</svg>
