<svg width="237" height="32" viewBox="0 0 237 32" fill="none" xmlns="http://www.w3.org/2000/svg">
<path fill-rule="evenodd" clip-rule="evenodd" d="M22.9797 0.144808C14.4439 1.04614 5.55212 5.59862 2.02987 10.8691C-1.63293 16.3509 -0.349679 21.5355 5.96864 26.785C12.5019 32.212 19.4135 33.4959 24.3615 30.2006C31.6266 25.3617 36.4468 9.00597 32.3624 3.05185C30.592 0.47135 27.8697 -0.372056 22.9797 0.144808ZM151.416 7.41719C147.476 8.0499 145.484 10.7482 145.356 15.6234C145.202 21.5278 147.796 24.6908 152.793 24.692C158.309 24.6933 161.499 19.7971 160.119 13.449C159.173 9.09254 155.751 6.72146 151.416 7.41719ZM230.109 7.45856C228.524 7.72718 227.282 8.24341 226.279 9.04862C222.089 12.4152 222.144 20.6125 226.377 23.4018C228.729 24.9511 232.751 25.1879 236.203 23.9804L236.945 23.7207L236.972 19.8843L237 16.0479H233.872H230.745V16.5782V17.109H233.235H235.726V20.032V22.9543L235.335 23.1185C233.325 23.9588 229.711 23.7945 227.772 22.7748C223.189 20.3643 223.472 11.5375 228.205 9.22303C230.28 8.20904 233.001 8.15175 235.335 9.07281C236.424 9.50247 236.349 9.51265 236.59 8.89713C236.833 8.28033 236.833 8.28096 235.885 7.98943C234.116 7.44583 231.565 7.21159 230.109 7.45856ZM44.1615 7.62661C41.4335 8.11929 40.1331 9.69279 40.1331 12.4993V13.9894L40.5331 14.801C41.1378 16.0263 42.1998 16.7933 44.8172 17.8971C46.8527 18.7551 47.549 19.5062 47.0148 20.2694C46.2333 21.3859 43.4341 21.151 40.1064 19.6902C40.0027 19.645 39.9741 20.0785 39.9741 21.6653V23.6978L40.5439 23.9594C44.2957 25.6787 49.9444 24.5253 51.2328 21.7767C52.5898 18.8805 51.3937 16.0829 48.1391 14.5432C44.8216 12.9741 44.6372 12.8513 44.6372 12.216C44.6372 10.992 46.4559 10.8545 49.3492 11.8589C49.9304 12.0607 50.4353 12.1905 50.4722 12.1479C50.5384 12.0709 51.7383 8.76855 51.7383 8.66416C51.7383 8.55976 50.4048 7.99134 49.7855 7.83094C48.2599 7.43692 45.722 7.34463 44.1615 7.62661ZM80.9516 10.2924C79.2563 15.4209 76.3261 24.3999 76.3261 24.4673C76.3261 24.5049 77.4701 24.5348 78.8678 24.5348H81.4095L81.4762 24.2433C81.5125 24.0829 81.6511 23.4979 81.7847 22.9435C81.9176 22.3891 82.0562 21.8047 82.0931 21.6443L82.1592 21.3522H84.8567H87.5536L87.8156 22.2274C88.0578 23.0377 88.178 23.4934 88.3465 24.2433L88.4127 24.5348H90.9544C92.3521 24.5348 93.4954 24.5049 93.4954 24.4673C93.4954 24.3999 90.5658 15.4209 88.8699 10.2924L87.9669 7.56105H84.9107H81.8552L80.9516 10.2924ZM54.9178 16.1008V24.5348H56.8242H58.7313L58.7587 18.7608L58.786 12.9862L60.2626 18.0976C61.0746 20.9091 61.8275 23.5075 61.9369 23.8722L62.1347 24.5348H64.3501H66.5656L66.7621 23.8722C66.8702 23.5075 67.6002 20.9327 68.3837 18.1498L69.8081 13.0912L69.8354 18.813L69.8634 24.5348H71.9816H74.1004V16.1008V7.66671H71.0328H67.9652L67.5958 8.86021C67.3923 9.51711 66.5974 12.1307 65.8293 14.6686C65.0611 17.2071 64.4226 19.2949 64.4099 19.3089C64.3978 19.3229 63.706 17.0072 62.8717 14.1638C62.038 11.3198 61.2648 8.69471 61.1528 8.32998L60.95 7.66671H57.9339H54.9178V16.1008ZM95.9335 16.0938V24.5348H98.1591H100.385V21.5062V18.4776L100.98 18.5094L101.576 18.5412L103.297 21.5113L105.018 24.482L107.63 24.5106C109.066 24.5259 110.241 24.5151 110.241 24.4864C110.241 24.4578 109.214 22.8569 107.959 20.9295C105.285 16.8245 105.471 17.1918 105.923 16.9123C109.056 14.9741 109.018 10.0588 105.859 8.5604C104.243 7.79402 103.834 7.73673 99.6694 7.69217L95.9335 7.65207V16.0938ZM111.089 9.52348V11.3802H113.103H115.116V17.9575V24.5348H117.448H119.78V17.9575V11.3802H121.793H123.807V9.52348V7.66671H117.448H111.089V9.52348ZM133.981 16.1008V24.5348H134.565H135.147V20.7691V17.0027H138.962H142.778V16.4725V15.9416H138.962H135.147V12.335V8.72781H139.175H143.202V8.19758V7.66671H138.592H133.981V16.1008ZM164.823 16.1008V24.5348H165.406H165.988V20.8728V17.2102L168.019 17.2389L170.05 17.2682L172.241 20.8748L174.432 24.482L175.138 24.5132C175.527 24.5304 175.845 24.5164 175.845 24.482C175.845 24.4476 174.867 22.7691 173.672 20.7519C172.477 18.7354 171.5 17.0543 171.5 17.0174C171.5 16.9798 171.822 16.785 172.216 16.5839C175.768 14.7653 175.995 9.90285 172.603 8.2886C171.489 7.75837 170.79 7.67053 167.657 7.66862L164.823 7.66671V16.1008ZM179.342 16.0969V24.5348H179.872H180.402L180.411 16.976L180.419 9.41717L180.687 10.0009C181.448 11.6584 184.089 18.1408 185.657 22.2013L186.538 24.482H187.03H187.523L188.369 22.4133C188.834 21.2751 190.224 17.8856 191.459 14.8812L193.703 9.41717L193.73 16.976L193.757 24.5348H194.34H194.922V16.0969V7.65844L194.012 7.68963L193.101 7.72018L190.147 14.976C188.522 18.9664 187.179 22.2688 187.162 22.314C187.146 22.3591 185.79 19.0944 184.148 15.0581L181.164 7.72018L180.253 7.68963L179.342 7.65844V16.0969ZM200.221 16.1008V24.5348H200.804H201.387V16.1008V7.66671H200.804H200.221V16.1008ZM206.58 16.0957V24.5348H207.109H207.639L207.666 17.1759L207.693 9.81628L212.63 17.1491L217.568 24.482L218.168 24.5138L218.768 24.5456V16.1065V7.66671H218.186H217.604L217.576 14.9716L217.55 22.2764L212.664 14.9983L207.778 7.72018L207.179 7.68835L206.58 7.65653V16.0957ZM17.4988 7.8825C19.0269 8.01744 18.9569 7.83603 18.157 9.58395L17.8384 10.2816L16.5322 10.0384C14.1546 9.59604 12.9273 9.8271 12.2329 10.8487C11.548 11.8551 12.0447 12.5419 14.3034 13.7112C16.8534 15.032 17.4155 16.7195 16.1946 19.3891C15.1415 21.6914 10.7977 22.9734 7.12535 22.0651C6.38516 21.8824 6.38706 21.9015 7.00389 20.6392L7.52787 19.5667L8.19748 19.7837C10.1293 20.4101 13.127 20.0511 13.8239 19.1103C14.6175 18.039 14.0878 17.1058 12.0549 15.9913C9.91886 14.8207 9.39297 14.1161 9.40505 12.4407C9.43049 8.99834 12.2393 7.41655 17.4988 7.8825ZM29.7374 8.62533C29.3539 10.2714 29.4143 10.2453 26.3518 10.0932C24.9942 10.0263 23.8133 9.99769 23.7275 10.0308C23.4591 10.1339 22.4868 13.2676 22.4868 14.0301C22.4868 14.1001 23.2779 14.1383 24.7258 14.1383H26.9642L26.8968 14.4776C26.7321 15.3013 26.5839 15.6762 26.3162 15.9442L26.0294 16.2313L24.0015 16.1778L21.9737 16.125L21.8001 16.6966C21.6404 17.2223 20.6847 20.9161 20.534 21.5909L20.4691 21.883H19.051H17.6336L17.8409 21.2198C18.8965 17.841 20.574 11.8118 21.051 9.68261C21.201 9.0117 21.3479 8.35544 21.3772 8.22368L21.4306 7.98498H25.6587H29.8868L29.7374 8.62533ZM154.374 8.78064C157.372 9.41654 158.992 11.9665 158.992 16.0479C158.992 20.7825 156.692 23.5768 152.793 23.5768C149.377 23.5768 147.291 21.4935 146.801 17.5915C146.046 11.5935 149.375 7.72082 154.374 8.78064ZM170.623 9.00152C172.652 9.42099 173.45 10.3599 173.457 12.335C173.466 15.0581 172.025 16.0479 168.05 16.0479H166.094V12.4407V8.83411H167.954C169.235 8.83411 170.064 8.88567 170.623 9.00152ZM85.7444 14.3503L86.5686 17.4801L85.7978 17.5113C85.3737 17.5279 84.6532 17.5279 84.196 17.5113L83.3642 17.4801L84.1114 14.2154C84.5222 12.4197 84.872 11.0111 84.8891 11.0855C84.9063 11.16 85.291 12.6291 85.7444 14.3503ZM102.574 11.4477C104.441 12.335 103.506 14.8748 101.312 14.8793L100.49 14.8812V13.0772V11.2739H101.349C101.925 11.2739 102.327 11.3312 102.574 11.4477Z" fill="#4781E8"/>
</svg>
