<?xml version="1.0" standalone="no"?>
<!DOCTYPE svg PUBLIC "-//W3C//DTD SVG 20010904//EN"
 "http://www.w3.org/TR/2001/REC-SVG-20010904/DTD/svg10.dtd">
<svg version="1.0" xmlns="http://www.w3.org/2000/svg"
 width="512.000000pt" height="512.000000pt" viewBox="0 0 512.000000 512.000000"
 preserveAspectRatio="xMidYMid meet">
<metadata>
Created by potrace 1.11, written by Peter Selinger 2001-2013
</metadata>
<g transform="translate(0.000000,512.000000) scale(0.100000,-0.100000)"
fill="#000000" stroke="none">
<path d="M3415 4554 c-413 -43 -684 -100 -1040 -219 -824 -275 -1486 -743
-1774 -1254 -321 -570 -212 -1113 333 -1656 430 -429 948 -728 1441 -832 116
-24 151 -27 325 -27 165 0 211 4 300 23 199 43 378 123 537 242 361 271 703
805 916 1435 148 436 215 832 204 1212 -10 381 -96 630 -282 818 -180 183
-376 252 -730 259 -104 1 -208 1 -230 -1z m-814 -980 c132 -7 166 -18 161 -53
-6 -41 -104 -241 -119 -241 -7 0 -82 12 -165 26 -307 53 -465 15 -539 -128
-53 -104 0 -178 212 -297 160 -89 212 -125 273 -192 123 -133 134 -314 31
-536 -97 -210 -363 -351 -720 -382 -161 -14 -405 11 -477 50 -26 14 -21 33 48
178 49 104 56 113 76 107 171 -50 170 -50 343 -50 132 -1 184 3 235 17 100 27
168 64 196 106 58 88 51 153 -24 233 -55 59 -91 85 -227 163 -244 141 -305
226 -305 424 1 307 172 493 515 562 78 15 245 28 315 23 30 -2 107 -6 171 -10z
m1559 -26 c-1 -30 -42 -174 -58 -202 -35 -61 -98 -65 -589 -39 l-121 6 -20
-39 c-41 -81 -132 -388 -132 -447 0 -23 3 -24 92 -31 50 -3 176 -6 280 -6 176
0 189 -1 184 -17 -3 -10 -10 -40 -16 -66 -14 -67 -32 -106 -64 -145 l-28 -32
-258 7 -258 6 -16 -54 c-15 -51 -129 -488 -159 -609 l-13 -55 -178 -3 c-166
-2 -177 -1 -172 15 182 589 405 1399 456 1661 l13 62 528 0 c417 0 529 -3 529
-12z"/>
</g>
</svg>
