<?xml version="1.0" encoding="utf-8"?>
<svg xmlns="http://www.w3.org/2000/svg">
<symbol id="16px-add-circle" viewBox="0 0 16 16">
    <g clip-path="url(#a)">
        <path d="M9 5v2h2v2H9v2H7V9H5V7h2V5h2Z"/>
        <path fill-rule="evenodd" d="M16 8A8 8 0 1 1 0 8a8 8 0 0 1 16 0Zm-2 0A6 6 0 1 1 2 8a6 6 0 0 1 12 0Z" clip-rule="evenodd"/>
    </g>
    <defs>
        <clipPath id="a">
            <path d="M0 0H16V16H0z"/>
        </clipPath>
    </defs>

</symbol>
<symbol id="16px-add" viewBox="0 0 16 16">
    <path d="M9 2v5h5v2H9v5H7V9H2V7h5V2h2Z"/>

</symbol>
<symbol id="16px-carrying" viewBox="0 0 16 16">
    <path d="M3 11H13V13H3z"/>
    <path d="M3 7H13V9H3z"/>
    <path d="M3 3H13V5H3z"/>

</symbol>
<symbol id="16px-close" viewBox="0 0 16 16">
    <path fill-rule="evenodd" d="M6.513 8 2 3.487 3.487 2 8 6.513 12.513 2 14 3.487 9.487 8 14 12.513 12.513 14 8 9.487 3.487 14 2 12.513 6.513 8Z" clip-rule="evenodd"/>

</symbol>
<symbol id="16px-delete" viewBox="0 0 16 16">
    <path d="M6 2h4l1 1h2v2H3V3h2l1-1Z"/>
    <path fill-rule="evenodd" d="M4 13V6h8v7a2 2 0 0 1-2 2H6a2 2 0 0 1-2-2Zm2-5h4v5H6V8Z" clip-rule="evenodd"/>

</symbol>
<symbol id="16px-done" viewBox="0 0 16 16">
    <path d="M5.746 11.053 2.444 7.684 1 9.158 5.746 14 16 3.474 14.556 2l-8.81 9.053Z"/>

</symbol>
<symbol id="16px-dowm-arrow" viewBox="0 0 16 16">
    <path stroke-width="2" d="M12 6v6H6M11 11 3 3"/>

</symbol>
<symbol id="16px-edit" viewBox="0 0 16 16">
    <path fill-rule="evenodd" d="M13.773 4.047a.774.774 0 0 1 0 1.097l-1.424 1.423L9.433 3.65l1.423-1.424a.774.774 0 0 1 1.097 0l1.82 1.82ZM2 14v-2.916l6.601-6.601 2.916 2.916L4.917 14H2Z" clip-rule="evenodd"/>

</symbol>
<symbol id="16px-iconplaceholder" viewBox="0 0 16 16">
    <g clip-path="url(#a)">
        <path fill-rule="evenodd" d="M8 0a8 8 0 1 0 0 16A8 8 0 0 0 8 0Zm0 2a6 6 0 1 0 0 12A6 6 0 0 0 8 2Z" clip-rule="evenodd"/>
    </g>
    <defs>
        <clipPath id="a">
            <path d="M0 0H16V16H0z"/>
        </clipPath>
    </defs>

</symbol>
<symbol id="16px-info" viewBox="0 0 16 16">
    <path fill-rule="evenodd" d="M8 16A8 8 0 1 0 8 0a8 8 0 0 0 0 16Zm0-2A6 6 0 1 0 8 2a6 6 0 0 0 0 12ZM9 4v2H7V4h2Zm0 8V7H7v5h2Z" clip-rule="evenodd"/>

</symbol>
<symbol id="16px-refresh" viewBox="0 0 16 16">
    <path d="M12.943 3.056A6.993 6.993 0 0 0 1 8c0 3.867 3.126 7 6.996 7 3.265 0 5.988-2.231 6.768-5.25h-1.821a5.245 5.245 0 0 1-4.947 3.5A5.256 5.256 0 0 1 2.742 8a5.256 5.256 0 0 1 5.254-5.25 5.18 5.18 0 0 1 3.694 1.558L8.871 7.125H15V1l-2.057 2.056Z"/>

</symbol>
<symbol id="16px-up-arrow" viewBox="0 0 16 16">
    <path stroke-width="2" d="M6 3h6v6M11 4l-8 8"/>

</symbol>
<symbol id="24px-add" viewBox="0 0 24 24">
    <path fill-rule="evenodd" d="M13 6h-2v5H6v2h5v5h2v-5h5v-2h-5V6Z" clip-rule="evenodd"/>

</symbol>
<symbol id="24px-add_circle_outline" viewBox="0 0 24 24">
    <path fill-rule="evenodd" d="M12 2C6.48 2 2 6.48 2 12s4.48 10 10 10 10-4.48 10-10S17.52 2 12 2Zm-1 5v4H7v2h4v4h2v-4h4v-2h-4V7h-2Zm-7 5c0 4.41 3.59 8 8 8s8-3.59 8-8-3.59-8-8-8-8 3.59-8 8Z" clip-rule="evenodd"/>

</symbol>
<symbol id="24px-american-express" viewBox="0 0 36 24">
    <g clip-path="url(#a)">
        <path d="M0 0H36.294V24H0z"/>
        <path fill-rule="evenodd" d="m11.547 10.913-.23.572h-1.35l-.23-.55v.55H7.148l-.275-.732H6.21l-.298.732H3.44L5.522 7h1.993l.275.526V7h2.337l.526 1.144L11.158 7h7.445c.344 0 .642.069.87.252V7h2.04v.252c.343-.184.778-.252 1.283-.252h2.955l.275.526V7h2.177l.32.526V7h2.13v4.485H28.5l-.412-.686v.686h-2.68l-.298-.732h-.665l-.298.732H22.75a2.75 2.75 0 0 1-1.237-.274v.274H18.19v-1.03c0-.137-.023-.16-.114-.16h-.115v1.19h-6.415v-.572Zm20.519 1.605c.237.004.494.002.494.002v2.82s-.054.607-.166.829c-.222.505-.695.625-.695.625-.297.137-.71.206-1.122.206h-1.779v-.275c-.229.184-.641.275-1.03.275H21.49v-1.03c0-.137-.023-.137-.137-.137h-.115V17h-2.062v-1.213c-.343.16-.733.16-1.077.16h-.229V17h-2.52l-.595-.686-.665.686h-4.055v-4.485h4.124l.595.686.642-.686h2.772c.32 0 .848.046 1.077.275v-.275h2.474c.252 0 .733.046 1.054.275v-.275h3.734v.275c.207-.183.596-.275.94-.275h2.084v.275c.23-.16.55-.275.963-.275h1.205c.184 0 .191 0 .367.003Z" clip-rule="evenodd"/>
        <path fill-rule="evenodd" d="M28.733 10.963 27.29 8.56v2.403h-1.558l-.298-.71h-1.603l-.298.71h-.894c-.366 0-.848-.092-1.122-.366-.252-.275-.39-.641-.39-1.213 0-.48.069-.916.412-1.259.23-.252.642-.366 1.169-.366h.733v.687h-.733c-.275 0-.435.045-.596.183-.137.137-.206.389-.206.732 0 .343.069.595.206.755.115.114.321.16.527.16h.344l1.1-2.517h1.145l1.283 3.02V7.76h1.191l1.352 2.22v-2.22h.779v3.204h-1.1Zm-13.127 2.31h2.451c.596 0 1.284.184 1.284 1.053 0 .893-.665 1.076-1.33 1.076h-.962v1.075H15.56l-.939-1.052-.985 1.052h-3.047v-3.203h3.092l.94 1.052.985-1.052Zm6.804.161c-.252-.137-.55-.16-.939-.16h-1.764v3.203h.779V15.31h.825c.274 0 .435.023.55.138.137.16.137.434.137.64v.39h.756v-.619c0-.297-.023-.434-.114-.595a.894.894 0 0 0-.39-.274c.206-.069.55-.343.55-.847 0-.366-.137-.572-.39-.709Zm5.43 1.099h-.412a1.16 1.16 0 0 1-.294-.045l-.004-.001c-.092-.046-.16-.115-.16-.23 0-.114.022-.182.114-.251.069-.046.16-.046.298-.046h1.42v-.686h-1.535c-.825 0-1.1.503-1.1.961 0 .942.784.963 1.466.98l.138.004c.138 0 .23.023.275.069a.349.349 0 0 1 .092.229.29.29 0 0 1-.092.206.522.522 0 0 1-.298.068H26.26v.686h1.49c.778 0 1.213-.32 1.213-1.006 0-.32-.091-.527-.229-.687-.183-.16-.458-.252-.893-.252Zm2.91 1.944h-1.49v-.686h1.49c.137 0 .252-.023.297-.069a.291.291 0 0 0 .092-.205.348.348 0 0 0-.091-.23c-.046-.045-.138-.068-.276-.068a19.09 19.09 0 0 0-.138-.004c-.682-.018-1.465-.038-1.465-.98 0-.458.298-.961 1.1-.961h1.534v.686h-1.42c-.137 0-.23 0-.298.046a.327.327 0 0 0-.114.252c0 .114.068.183.16.229h.002c.091.023.182.046.296.046h.412c.435 0 .71.09.894.251.137.16.229.366.229.687 0 .686-.436 1.006-1.215 1.006Zm-6.759-.663h1.81v.664h-2.566v-3.204h2.566v.664h-1.81v.595h1.764v.64h-1.764v.641Zm-2.566-1.167-.94.023v-.732h.94c.138 0 .275 0 .367.068.092.046.16.138.16.275a.4.4 0 0 1-.16.32c-.115.046-.23.046-.367.046Zm-4.376.114h1.009c.274 0 .458-.16.458-.434 0-.275-.183-.39-.458-.39h-1.009v.825Zm-1.947.115 1.192-1.259v2.586l-1.192-1.327Zm-3.757.297v.641h1.901l.87-.938-.847-.938h-1.924v.595h1.695v.64h-1.695Zm8.615-4.21V7.759h.778v3.204h-.778Zm-.849-3.067c-.252-.137-.527-.137-.916-.137H16.43v3.204h.756V9.796h.824c.275 0 .459.022.573.137.121.14.118.37.115.548v.482h.778v-.641c0-.275-.023-.412-.137-.572a.96.96 0 0 0-.366-.275.909.909 0 0 0 .55-.846c0-.366-.161-.573-.413-.733ZM14.094 10.3h1.787v.664h-2.566V7.759h2.566v.664h-1.787v.572h1.764v.663h-1.764v.641Zm-2.611-2.54-.94 2.174-1.008-2.174H8.298v3.02L6.992 7.76H5.847l-1.375 3.204h.825l.298-.71h1.603l.298.71h1.558V8.446l1.123 2.517h.664l1.123-2.517v2.517h.778V7.759h-1.26Zm13.15.55.526 1.258h-1.054l.527-1.259Zm-6.507.823h-.94v-.71h.94c.137 0 .297 0 .39.047.09.068.137.16.137.297 0 .137-.046.251-.137.297-.115.07-.23.07-.39.07Zm-11.202.435-.527-1.259-.527 1.259h1.054Z" clip-rule="evenodd"/>
    </g>
    <defs>
        <clipPath id="a">
            <rect width="36" height="24" rx="6"/>
        </clipPath>
    </defs>

</symbol>
<symbol id="24px-arrow-back" viewBox="0 0 24 24">
    <path d="m12 20 1.41-1.41L7.83 13H20v-2H7.83l5.58-5.59L12 4l-8 8 8 8Z"/>

</symbol>
<symbol id="24px-arrow-drop-down" viewBox="0 0 24 24">
    <path d="m7 10 5 5 5-5H7Z"/>

</symbol>
<symbol id="24px-arrow-drop-up" viewBox="0 0 24 24">
    <path d="m7 15 5-5 5 5H7Z"/>

</symbol>
<symbol id="24px-arrow-forward" viewBox="0 0 24 24">
    <path d="m12 4-1.41 1.41L16.17 11H4v2h12.17l-5.58 5.59L12 20l8-8-8-8Z"/>

</symbol>
<symbol id="24px-arrow-left" viewBox="0 0 24 24">
    <path d="m14 7-5 5 5 5V7Z"/>

</symbol>
<symbol id="24px-arrow-right" viewBox="0 0 24 24">
    <path d="m10 17 5-5-5-5v10Z"/>

</symbol>
<symbol id="24px-attach_money" viewBox="0 0 24 24">
    <path d="M12.39 10.9c-2.27-.59-3-1.2-3-2.15 0-1.09 1.01-1.85 2.7-1.85 1.78 0 2.44.85 2.5 2.1h2.21c-.07-1.72-1.12-3.3-3.21-3.81V3h-3v2.16c-1.94.42-3.5 1.68-3.5 3.61 0 2.31 1.91 3.46 4.7 4.13 2.5.6 3 1.48 3 2.41 0 .69-.49 1.79-2.7 1.79-2.06 0-2.87-.92-2.98-2.1h-2.2c.12 2.19 1.76 3.42 3.68 3.83V21h3v-2.15c1.95-.37 3.5-1.5 3.5-3.55 0-2.84-2.43-3.81-4.7-4.4Z"/>

</symbol>
<symbol id="24px-attachment" viewBox="0 0 24 24">
    <path d="M18 16H6.5c-2.21 0-4-1.79-4-4s1.79-4 4-4H19a2.5 2.5 0 0 1 0 5H8.5c-.55 0-1-.45-1-1s.45-1 1-1H18V9.5H8.5a2.5 2.5 0 0 0 0 5H19c2.21 0 4-1.79 4-4s-1.79-4-4-4H6.5C3.46 6.5 1 8.96 1 12s2.46 5.5 5.5 5.5H18V16Z"/>

</symbol>
<symbol id="24px-check_circle" viewBox="0 0 24 24">
    <path fill-rule="evenodd" d="M12 2C6.48 2 2 6.48 2 12s4.48 10 10 10 10-4.48 10-10S17.52 2 12 2Zm0 18c-4.41 0-8-3.59-8-8s3.59-8 8-8 8 3.59 8 8-3.59 8-8 8Zm-2-5.83 6.59-6.59L18 9l-8 8-4-4 1.41-1.41L10 14.17Z" clip-rule="evenodd"/>

</symbol>
<symbol id="24px-chevron-left" viewBox="0 0 24 24">
    <path d="M15.705 7.41 14.295 6l-6 6 6 6 1.41-1.41-4.58-4.59 4.58-4.59Z"/>

</symbol>
<symbol id="24px-chevron-right" viewBox="0 0 24 24">
    <path d="m9.705 6-1.41 1.41 4.58 4.59-4.58 4.59L9.705 18l6-6-6-6Z"/>

</symbol>
<symbol id="24px-close" viewBox="0 0 24 24">
    <path d="M19 6.41 17.59 5 12 10.59 6.41 5 5 6.41 10.59 12 5 17.59 6.41 19 12 13.41 17.59 19 19 17.59 13.41 12 19 6.41Z"/>

</symbol>
<symbol id="24px-credit-card" viewBox="0 0 24 24">
    <path fill-rule="evenodd" d="M20 4H4c-1.11 0-1.99.89-1.99 2L2 18c0 1.11.89 2 2 2h16c1.11 0 2-.89 2-2V6c0-1.11-.89-2-2-2Zm0 14H4v-6h16v6ZM4 8h16V6H4v2Z" clip-rule="evenodd"/>

</symbol>
<symbol id="24px-delete" viewBox="0 0 24 24">
    <path fill-rule="evenodd" d="M14.5 3h-5l-1 1H5v2h14V4h-3.5l-1-1ZM16 9v10H8V9h8ZM6 7h12v12c0 1.1-.9 2-2 2H8c-1.1 0-2-.9-2-2V7Z" clip-rule="evenodd"/>

</symbol>
<symbol id="24px-delete_forever" viewBox="0 0 24 24">
    <path fill-rule="evenodd" d="m14.5 3 1 1H19v2H5V4h3.5l1-1h5ZM12 12.59l2.12-2.12 1.41 1.41L13.41 14l2.12 2.12-1.41 1.41L12 15.41l-2.12 2.12-1.41-1.41L10.59 14l-2.13-2.12 1.41-1.41L12 12.59ZM6 19c0 1.1.9 2 2 2h8c1.1 0 2-.9 2-2V7H6v12ZM16 9H8v10h8V9Z" clip-rule="evenodd"/>

</symbol>
<symbol id="24px-done" viewBox="0 0 24 24">
    <path d="m8.8 15.9-4.2-4.2-1.4 1.4 5.6 5.6 12-12-1.4-1.4L8.8 15.9Z"/>

</symbol>
<symbol id="24px-download" viewBox="0 0 24 24">
    <path fill-rule="evenodd" d="M19 10h-4V4H9v6H5l7 7 7-7Zm-8 2V6h2v6h1.17L12 14.17 9.83 12H11Zm8 9v-2H5v2h14Z" clip-rule="evenodd"/>

</symbol>
<symbol id="24px-edit" viewBox="0 0 24 24">
    <path fill-rule="evenodd" d="M17.659 3c-.25 0-.51.1-.7.29l-1.83 1.83 3.75 3.75 1.83-1.83a.996.996 0 0 0 0-1.41l-2.34-2.34c-.2-.2-.45-.29-.71-.29Zm-3.6 6.02.92.92L5.919 19h-.92v-.92l9.06-9.06Zm-11.06 8.23 11.06-11.06 3.75 3.75L6.749 21h-3.75v-3.75Z" clip-rule="evenodd"/>

</symbol>
<symbol id="24px-error" viewBox="0 0 24 24">
    <path fill-rule="evenodd" d="M12 2C6.48 2 2 6.48 2 12s4.48 10 10 10 10-4.48 10-10S17.52 2 12 2Zm-1 15v-2h2v2h-2Zm0-10v6h2V7h-2Z" clip-rule="evenodd"/>

</symbol>
<symbol id="24px-expand-less" viewBox="0 0 24 24">
    <path d="m12 8.295-6 6 1.41 1.41 4.59-4.58 4.59 4.58 1.41-1.41-6-6Z"/>

</symbol>
<symbol id="24px-expand-more" viewBox="0 0 24 24">
    <path d="M16.59 8.295 12 12.875l-4.59-4.58L6 9.705l6 6 6-6-1.41-1.41Z"/>

</symbol>
<symbol id="24px-eye" viewBox="0 0 24 24">
    <path fill-rule="evenodd" d="M1 12c1.73-4.39 6-7.5 11-7.5s9.27 3.11 11 7.5c-1.73 4.39-6 7.5-11 7.5S2.73 16.39 1 12Zm19.82 0A9.77 9.77 0 0 0 12 6.5 9.77 9.77 0 0 0 3.18 12 9.76 9.76 0 0 0 12 17.5c3.8 0 7.17-2.13 8.82-5.5ZM12 9.5a2.5 2.5 0 0 1 0 5 2.5 2.5 0 0 1 0-5ZM7.5 12c0-2.48 2.02-4.5 4.5-4.5s4.5 2.02 4.5 4.5-2.02 4.5-4.5 4.5-4.5-2.02-4.5-4.5Z" clip-rule="evenodd"/>

</symbol>
<symbol id="24px-file" viewBox="0 0 24 24">
    <path d="M4 4a2 2 0 0 1 2-2h8a1 1 0 0 1 .707.293l5 5A1 1 0 0 1 20 8v12a2 2 0 0 1-2 2H6a2 2 0 0 1-2-2V4Zm13.586 4L14 4.414V8h3.586ZM12 4H6v16h12V10h-5a1 1 0 0 1-1-1V4Z"/>

</symbol>
<symbol id="24px-iconplaceholder" viewBox="0 0 24 24">
    <g clip-path="url(#a)">
        <path fill-rule="evenodd" d="M12 0C5.373 0 0 5.373 0 12s5.373 12 12 12 12-5.373 12-12S18.627 0 12 0Zm0 2C6.477 2 2 6.477 2 12s4.477 10 10 10 10-4.477 10-10S17.523 2 12 2Z" clip-rule="evenodd"/>
    </g>
    <defs>
        <clipPath id="a">
            <path d="M0 0H24V24H0z"/>
        </clipPath>
    </defs>

</symbol>
<symbol id="24px-image" viewBox="0 0 24 24">
    <path fill-rule="evenodd" d="M19 3H5c-1.1 0-2 .9-2 2v14c0 1.1.9 2 2 2h14c1.1 0 2-.9 2-2V5c0-1.1-.9-2-2-2Zm0 2v14H5V5h14Zm-7.86 10.73 3-3.87L18 17H6l3-3.86 2.14 2.59Z" clip-rule="evenodd"/>

</symbol>
<symbol id="24px-info" viewBox="0 0 24 24">
    <path fill-rule="evenodd" d="M12 2C6.48 2 2 6.48 2 12s4.48 10 10 10 10-4.48 10-10S17.52 2 12 2Zm-1 15v-6h2v6h-2Zm0-10v2h2V7h-2Z" clip-rule="evenodd"/>

</symbol>
<symbol id="24px-insert_invitation" viewBox="0 0 24 24">
    <path fill-rule="evenodd" d="M18 4h1c1.1 0 2 .9 2 2v14c0 1.1-.9 2-2 2H5a2 2 0 0 1-2-2V6a2 2 0 0 1 2-2h1V2h2v2h8V2h2v2ZM5 10v10h14V10H5Zm14-2H5V6h14v2Zm-7 4H7v5h5v-5Z" clip-rule="evenodd"/>

</symbol>
<symbol id="24px-layers" viewBox="0 0 24 24">
    <path fill-rule="evenodd" d="m12 16.465 7.36-5.73L21 9.465l-9-7-9 7 1.63 1.27 7.37 5.73Zm-.01 2.54-7.37-5.73L3 14.535l9 7 9-7-1.63-1.27-7.38 5.74Zm5.75-9.54L12 4.995l-5.74 4.47 5.74 4.47 5.74-4.47Z" clip-rule="evenodd"/>

</symbol>
<symbol id="24px-logout" viewBox="0 0 24 24">
    <path d="m22.266 11.761-4-4v3h-8v2h8v3l4-4Zm-2 6a10 10 0 1 1 0-12h-2.73a8 8 0 1 0 0 12h2.73Z"/>

</symbol>
<symbol id="24px-mastercard" viewBox="0 0 36 24">
    <g clip-path="url(#a)">
        <path d="M0 0H36V24H0z"/>
        <path fill-rule="evenodd" d="M12 19.5a7.5 7.5 0 1 0 0-15 7.5 7.5 0 0 0 0 15Z" clip-rule="evenodd"/>
        <path fill-rule="evenodd" d="M22.714 19.5a7.5 7.5 0 1 0 0-15 7.5 7.5 0 0 0 0 15Z" clip-rule="evenodd"/>
        <path fill-rule="evenodd" d="M17.357 6.75A7.476 7.476 0 0 0 15.214 12c0 2.044.818 3.896 2.143 5.25A7.476 7.476 0 0 0 19.5 12a7.476 7.476 0 0 0-2.143-5.25Z" clip-rule="evenodd"/>
    </g>
    <defs>
        <clipPath id="a">
            <rect width="36" height="24" rx="6"/>
        </clipPath>
    </defs>

</symbol>
<symbol id="24px-more" viewBox="0 0 24 24">
    <path fill-rule="evenodd" d="M6 10c-1.1 0-2 .9-2 2s.9 2 2 2 2-.9 2-2-.9-2-2-2Zm12 0c-1.1 0-2 .9-2 2s.9 2 2 2 2-.9 2-2-.9-2-2-2Zm-8 2c0-1.1.9-2 2-2s2 .9 2 2-.9 2-2 2-2-.9-2-2Z" clip-rule="evenodd"/>

</symbol>
<symbol id="24px-my-account" viewBox="0 0 24 24">
    <path fill-rule="evenodd" d="M12 2C6.48 2 2 6.48 2 12s4.48 10 10 10 10-4.48 10-10S17.52 2 12 2ZM7.07 18.28c.43-.9 3.05-1.78 4.93-1.78s4.51.88 4.93 1.78A7.893 7.893 0 0 1 12 20c-1.86 0-3.57-.64-4.93-1.72ZM12 14.5c1.46 0 4.93.59 6.36 2.33A7.95 7.95 0 0 0 20 12c0-4.41-3.59-8-8-8s-8 3.59-8 8c0 1.82.62 3.49 1.64 4.83 1.43-1.74 4.9-2.33 6.36-2.33ZM12 6c-1.94 0-3.5 1.56-3.5 3.5S10.06 13 12 13s3.5-1.56 3.5-3.5S13.94 6 12 6Zm-1.5 3.5c0 .83.67 1.5 1.5 1.5s1.5-.67 1.5-1.5S12.83 8 12 8s-1.5.67-1.5 1.5Z" clip-rule="evenodd"/>

</symbol>
<symbol id="24px-notifications-none" viewBox="0 0 24 24">
    <path fill-rule="evenodd" d="M18 15.75v-5c0-3.07-1.63-5.64-4.5-6.32v-.68c0-.83-.67-1.5-1.5-1.5s-1.5.67-1.5 1.5v.68C7.64 5.11 6 7.67 6 10.75v5l-2 2v1h16v-1l-2-2Zm-6 6c1.1 0 2-.9 2-2h-4c0 1.1.9 2 2 2Zm-4-5h8v-6c0-2.48-1.51-4.5-4-4.5s-4 2.02-4 4.5v6Z" clip-rule="evenodd"/>

</symbol>
<symbol id="24px-open-in-new" viewBox="0 0 24 24">
    <path fill-rule="evenodd" d="M5 5v14h14v-7h2v7c0 1.1-.9 2-2 2H5a2 2 0 0 1-2-2V5a2 2 0 0 1 2-2h7v2H5Zm9 0V3h7v7h-2V6.41l-9.83 9.83-1.41-1.41L17.59 5H14Z" clip-rule="evenodd"/>

</symbol>
<symbol id="24px-orcid_id" viewBox="0 0 24 24">
    <path d="M22 12c0 5.523-4.477 10-10 10S2 17.523 2 12 6.477 2 12 2s10 4.477 10 10Z"/>
    <path d="M8.742 16.547H7.54V8.18h1.203V16.547ZM10.508 8.18h3.25c3.094 0 4.453 2.21 4.453 4.187 0 2.149-1.68 4.188-4.438 4.188h-3.265V8.18Zm1.203 7.289h1.914c2.727 0 3.352-2.07 3.352-3.102 0-1.68-1.07-3.101-3.415-3.101h-1.851v6.203ZM8.93 6.438c0 .43-.352.789-.79.789a.792.792 0 0 1-.788-.79c0-.437.351-.789.789-.789.437 0 .789.36.789.79Z"/>

</symbol>
<symbol id="24px-order-list" viewBox="0 0 24 24">
    <path fill-rule="evenodd" d="M4 7V5h16v2H4Zm0 2h16v2H4V9Zm0 8h10v2H4v-2Zm0-2h16v-2H4v2Z" clip-rule="evenodd"/>

</symbol>
<symbol id="24px-rate-review" viewBox="0 0 24 24">
    <path fill-rule="evenodd" d="M4 2h16c1.1 0 2 .9 2 2v12c0 1.1-.9 2-2 2H6l-4 4 .01-18c0-1.1.89-2 1.99-2Zm1.17 14H20V4H4v13.17L5.17 16Zm5.33-2H18v-2h-5.5l-2 2Zm3.86-6.58c.2.2.2.51 0 .71L8.47 14H6v-2.47l5.88-5.88c.2-.2.51-.2.71 0l1.77 1.77Z" clip-rule="evenodd"/>

</symbol>
<symbol id="24px-search" viewBox="0 0 24 24">
    <path fill-rule="evenodd" d="M16.052 15.32h.813L20 18.468 18.467 20l-3.146-3.136v-.813l-.278-.288a6.66 6.66 0 0 1-4.353 1.616 6.69 6.69 0 1 1 6.69-6.69 6.66 6.66 0 0 1-1.617 4.354l.289.278Zm-9.994-4.63a4.625 4.625 0 0 0 4.632 4.63 4.625 4.625 0 0 0 4.63-4.63 4.625 4.625 0 0 0-4.63-4.632 4.625 4.625 0 0 0-4.632 4.632Z" clip-rule="evenodd"/>

</symbol>
<symbol id="24px-settings" viewBox="0 0 24 24">
    <path fill-rule="evenodd" d="M19.502 12c0 .34-.03.66-.07.98l2.11 1.65c.19.15.24.42.12.64l-2 3.46c-.09.16-.26.25-.43.25-.06 0-.12-.01-.18-.03l-2.49-1c-.52.39-1.08.73-1.69.98l-.38 2.65c-.03.24-.24.42-.49.42h-4c-.25 0-.46-.18-.49-.42l-.38-2.65c-.61-.25-1.17-.58-1.69-.98l-2.49 1a.5.5 0 0 1-.61-.22l-2-3.46a.505.505 0 0 1 .12-.64l2.11-1.65a7.93 7.93 0 0 1-.07-.98c0-.33.03-.66.07-.98l-2.11-1.65a.493.493 0 0 1-.12-.64l2-3.46c.09-.16.26-.25.43-.25.06 0 .12.01.18.03l2.49 1c.52-.39 1.08-.73 1.69-.98l.38-2.65c.03-.24.24-.42.49-.42h4c.25 0 .46.18.49.42l.38 2.65c.61.25 1.17.58 1.69.98l2.49-1a.5.5 0 0 1 .61.22l2 3.46c.12.22.07.49-.12.64l-2.11 1.65c.04.32.07.64.07.98Zm-2 0c0-.21-.01-.42-.05-.73l-.14-1.13.89-.7 1.07-.85-.7-1.21-1.27.51-1.06.43-.91-.7c-.4-.3-.8-.53-1.23-.71l-1.06-.43-.35-2.48h-1.39l-.2 1.35-.16 1.13-1.06.43c-.41.17-.82.41-1.25.73l-.9.68-1.04-.42-1.27-.51-.7 1.21 1.08.84.89.7-.14 1.13c-.03.3-.05.53-.05.73 0 .2.02.43.05.74l.14 1.13-.89.7-1.08.84.7 1.21 1.27-.51 1.06-.43.91.7c.4.3.8.53 1.23.71l1.06.43.35 2.48h1.4l.2-1.35.16-1.13 1.06-.43c.41-.17.82-.41 1.25-.73l.9-.68 1.04.42 1.27.51.7-1.21-1.08-.84-.89-.7.14-1.13c.03-.3.05-.52.05-.73Zm-5.5-4c-2.21 0-4 1.79-4 4s1.79 4 4 4 4-1.79 4-4-1.79-4-4-4Zm-2 4c0 1.1.9 2 2 2s2-.9 2-2-.9-2-2-2-2 .9-2 2Z" clip-rule="evenodd"/>

</symbol>
<symbol id="24px-shopping-cart" viewBox="0 0 24 24">
    <path fill-rule="evenodd" d="M18.296 11.97c-.34.62-1 1.03-1.75 1.03h-7.45l-1.1 2h12v2h-12c-1.52 0-2.48-1.63-1.75-2.97l1.35-2.44L3.996 4h-2V2h3.27l.94 2h14.8c.76 0 1.24.82.87 1.48l-3.58 6.49ZM19.306 6H7.156l2.37 5h7.02l2.76-5ZM7.996 18c-1.1 0-1.99.9-1.99 2s.89 2 1.99 2 2-.9 2-2-.9-2-2-2Zm8.01 2c0-1.1.89-2 1.99-2s2 .9 2 2-.9 2-2 2-1.99-.9-1.99-2Z" clip-rule="evenodd"/>

</symbol>
<symbol id="24px-slider" viewBox="0 0 24 24">
    <path d="M17 17c-1.2 0-2.258-.379-3.175-1.137-.917-.759-1.492-1.713-1.725-2.863H6.8c-.2.45-.508.812-.925 1.087A2.443 2.443 0 0 1 4.5 14.5c-.7 0-1.292-.242-1.775-.725C2.242 13.292 2 12.7 2 12s.242-1.292.725-1.775C3.208 9.742 3.8 9.5 4.5 9.5c.5 0 .958.137 1.375.412.417.275.725.638.925 1.088h5.3c.233-1.15.808-2.104 1.725-2.863A4.837 4.837 0 0 1 17 7c1.383 0 2.563.487 3.538 1.462C21.513 9.437 22 10.617 22 12s-.487 2.562-1.462 3.537C19.563 16.512 18.383 17 17 17Zm0-2c.833 0 1.542-.292 2.125-.875A2.893 2.893 0 0 0 20 12c0-.833-.292-1.542-.875-2.125A2.893 2.893 0 0 0 17 9c-.833 0-1.542.292-2.125.875A2.893 2.893 0 0 0 14 12c0 .833.292 1.542.875 2.125A2.893 2.893 0 0 0 17 15Z"/>

</symbol>
<symbol id="24px-small-spinner" viewBox="0 0 24 24">
    <path fill-rule="evenodd" d="M11 3a1 1 0 0 1 1-1c5.523 0 10 4.477 10 10s-4.477 10-10 10S2 17.523 2 12a1 1 0 1 1 2 0 8 8 0 1 0 8-8 1 1 0 0 1-1-1Z" clip-rule="evenodd"/>

</symbol>
<symbol id="24px-star-border" viewBox="0 0 24 24">
    <path fill-rule="evenodd" d="m14.81 9.12 7.19.62-5.45 4.73 1.63 7.03L12 17.77 5.82 21.5l1.64-7.03L2 9.74l7.19-.61L12 2.5l2.81 6.62Zm-6.57 9.05L12 15.9l3.77 2.28-1-4.28 3.32-2.88-4.38-.38L12 6.6l-1.7 4.03-4.38.38 3.32 2.88-1 4.28Z" clip-rule="evenodd"/>

</symbol>
<symbol id="24px-star-half" viewBox="0 0 24 24">
    <path fill-rule="evenodd" d="m14.81 9.12 7.19.62-5.45 4.73 1.63 7.03L12 17.77 5.82 21.5l1.64-7.03L2 9.74l7.19-.61L12 2.5l2.81 6.62ZM12 6.6v9.3l3.77 2.28-1-4.28 3.32-2.88-4.38-.38L12 6.6Z" clip-rule="evenodd"/>

</symbol>
<symbol id="24px-star-solid" viewBox="0 0 24 24">
    <path d="M12 17.27 18.18 21l-1.64-7.03L22 9.24l-7.19-.61L12 2 9.19 8.63 2 9.24l5.46 4.73L5.82 21 12 17.27Z"/>

</symbol>
<symbol id="24px-store" viewBox="0 0 24 24">
    <path fill-rule="evenodd" d="M4 4h16v2H4V4Zm14.96 8-.6-3H5.64l-.6 3h13.92ZM20 7H4l-1 5v2h1v6h10v-6h4v6h2v-6h1v-2l-1-5ZM6 14v4h6v-4H6Z" clip-rule="evenodd"/>

</symbol>
<symbol id="24px-upload" viewBox="0 0 24 24">
    <path fill-rule="evenodd" d="M5 11h4v6h6v-6h4l-7-7-7 7Zm8-2v6h-2V9H9.83L12 6.83 14.17 9H13Z" clip-rule="evenodd"/>
    <path d="M19 19v2H5v-2h14Z"/>

</symbol>
<symbol id="24px-visa" viewBox="0 0 36 24">
    <rect width="36" height="24" rx="6"/>
    <path fill-rule="evenodd" d="m23.698 7.88-.32 1.866c-.956-.534-3.135-.66-3.135.323 0 .39.493.66 1.087.983.9.491 2.034 1.109 2.034 2.471 0 2.177-2.302 2.977-3.829 2.977-1.525 0-2.524-.491-2.524-.491l.332-1.952c.916.744 3.691.955 3.691-.225 0-.495-.546-.788-1.18-1.127-.874-.468-1.914-1.024-1.914-2.327 0-2.387 2.636-2.878 3.746-2.878 1.027 0 2.012.38 2.012.38Zm7.463 8.47h-2.054l-.262-1.291h-2.843l-.466 1.291h-2.332l3.336-8.047s.202-.648 1.033-.648h1.797l1.791 8.695ZM11.515 7.656l-2.133 5.98-.252-1.288-.752-3.91s-.091-.782-1.061-.782H3.79l-.041.147s1.078.227 2.34.994l1.943 7.553h2.33l3.559-8.694h-2.408Zm4.118 8.694h-2.237l1.398-8.694h2.237l-1.398 8.694Zm11.013-3.076 1.175-3.253.661 3.253h-1.836Z" clip-rule="evenodd"/>
    <path d="m9.13 12.348-.752-3.91s-.091-.783-1.061-.783H3.79l-.041.148s1.694.355 3.32 1.686c1.553 1.273 2.06 2.86 2.06 2.86Z"/>

</symbol>
<symbol id="40px-all" viewBox="0 0 40 40">
    <path d="m10.875 18.167 9.167-14.834 9.166 14.834H10.875Zm18.458 18.5c-2.055 0-3.791-.708-5.208-2.125C22.708 33.125 22 31.389 22 29.333c0-2.055.708-3.791 2.125-5.208C25.542 22.708 27.278 22 29.333 22c2.056 0 3.792.708 5.209 2.125 1.417 1.417 2.125 3.153 2.125 5.208 0 2.056-.708 3.792-2.125 5.209-1.417 1.417-3.153 2.125-5.209 2.125ZM5 35.708V22.792h12.875v12.916H5Zm24.333-1.833c1.278 0 2.354-.438 3.229-1.313s1.313-1.951 1.313-3.229c0-1.277-.438-2.354-1.313-3.229s-1.951-1.312-3.229-1.312c-1.277 0-2.354.437-3.229 1.312s-1.312 1.952-1.312 3.229c0 1.278.437 2.354 1.312 3.229s1.952 1.313 3.229 1.313Zm-21.541-.958h7.333v-7.334H7.792v7.334Zm8.041-17.542h8.375l-4.166-6.75-4.209 6.75Z"/>

</symbol>
<symbol id="40px-energy" viewBox="0 0 40 40">
    <path d="m16.625 35 1.708-11.708h-6c-.333 0-.562-.132-.687-.396s-.105-.549.062-.854L21.75 5h1.708L21.75 16.708h5.958c.333 0 .57.125.709.375s.125.528-.042.834L18.333 35h-1.708Z"/>

</symbol>
<symbol id="40px-fb" viewBox="0 0 40 40">
    <path d="M32.5 20.087c0 6.267-4.573 11.474-10.547 12.426v-8.79h2.92l.547-3.636h-3.453v-2.361c0-.994.48-1.973 2.026-1.973h1.587v-3.087s-1.44-.241-2.8-.241c-2.853 0-4.733 1.744-4.733 4.884v2.778h-3.174v3.637h3.174v8.79C12.073 31.546 7.5 26.353 7.5 20.086 7.5 13.137 13.1 7.5 20.007 7.5c6.906 0 12.493 5.636 12.493 12.587Z"/>

</symbol>
<symbol id="40px-fluids" viewBox="0 0 40 40">
    <path d="M13.333 11.375c.39 0 .716-.132.979-.396a1.33 1.33 0 0 0 .396-.979 1.33 1.33 0 0 0-.396-.979 1.328 1.328 0 0 0-.979-.396 1.33 1.33 0 0 0-.979.396 1.33 1.33 0 0 0-.396.979c0 .389.132.715.396.979s.59.396.979.396Zm5 0c.39 0 .716-.132.979-.396a1.33 1.33 0 0 0 .396-.979 1.33 1.33 0 0 0-.396-.979 1.328 1.328 0 0 0-.979-.396 1.33 1.33 0 0 0-.979.396 1.33 1.33 0 0 0-.396.979c0 .389.132.715.396.979s.59.396.979.396ZM20 29.708c1.667 0 3.09-.57 4.271-1.708 1.18-1.139 1.771-2.528 1.771-4.167a6.05 6.05 0 0 0-.417-2.229 5.513 5.513 0 0 0-1.25-1.896L20 15.333l-4.208 4.209a6.82 6.82 0 0 0-1.354 1.937 5.05 5.05 0 0 0-.48 2.354c.056 1.64.667 3.028 1.834 4.167 1.167 1.139 2.57 1.708 4.208 1.708Zm0-2.625c-.917 0-1.694-.32-2.333-.958-.64-.639-.959-1.403-.959-2.292 0-.444.104-.881.313-1.312.208-.43.479-.799.812-1.104L20 19.25l2.25 2.25c.305.305.555.66.75 1.062.195.403.292.827.292 1.271 0 .917-.32 1.688-.959 2.313-.639.625-1.416.937-2.333.937ZM9.458 36.667c-.75 0-1.403-.278-1.958-.834-.555-.555-.833-1.208-.833-1.958V6.125c0-.75.278-1.403.833-1.958.555-.556 1.208-.834 1.958-.834h21.084c.75 0 1.403.278 1.958.834.555.555.833 1.208.833 1.958v27.75c0 .75-.278 1.403-.833 1.958-.555.556-1.208.834-1.958.834H9.458Zm0-2.792h21.084V6.125H9.458v27.75Zm0 0V6.125v27.75Z"/>

</symbol>
<symbol id="40px-geodesy" viewBox="0 0 40 40">
    <path d="M19.375 36.625c-2.222-.055-4.312-.534-6.271-1.437A16.757 16.757 0 0 1 8 31.583a16.87 16.87 0 0 1-3.417-5.229C3.75 24.368 3.333 22.25 3.333 20c0-2.305.438-4.472 1.313-6.5.875-2.028 2.062-3.792 3.562-5.292s3.264-2.687 5.292-3.562 4.195-1.313 6.5-1.313c4.111 0 7.695 1.292 10.75 3.875 3.055 2.583 4.93 5.833 5.625 9.75h-2.833a13.745 13.745 0 0 0-2.896-5.979c-1.459-1.764-3.271-3.076-5.438-3.937v.708c0 .945-.333 1.771-1 2.479-.667.709-1.472 1.063-2.416 1.063H18.25v3.5c0 .472-.18.868-.542 1.187a1.83 1.83 0 0 1-1.25.479h-3.416V20h4.166v5.125h-2.416l-8.334-8.333c-.11.555-.194 1.097-.25 1.625A15.16 15.16 0 0 0 6.125 20c0 3.722 1.264 6.923 3.792 9.604 2.527 2.68 5.68 4.104 9.458 4.271v2.75Zm15.958-1-5.5-5.5a7.748 7.748 0 0 1-1.895.917 6.746 6.746 0 0 1-2.105.333c-2 0-3.701-.701-5.104-2.104s-2.104-3.104-2.104-5.104.701-3.702 2.104-5.105c1.403-1.403 3.104-2.104 5.104-2.104s3.702.701 5.105 2.104c1.403 1.403 2.104 3.105 2.104 5.105 0 .722-.111 1.423-.334 2.104a8.506 8.506 0 0 1-.916 1.937l5.5 5.459-1.959 1.958Zm-9.5-7c1.25 0 2.306-.43 3.167-1.292.861-.86 1.292-1.916 1.292-3.166S29.862 21.861 29 21c-.861-.861-1.917-1.292-3.167-1.292-1.25 0-2.305.43-3.166 1.292-.861.861-1.292 1.917-1.292 3.167 0 1.25.43 2.305 1.292 3.166.86.861 1.916 1.292 3.166 1.292Z"/>

</symbol>
<symbol id="40px-hybrid" viewBox="0 0 40 40">
    <path d="M26.667 28.875c2.472 0 4.569-.868 6.291-2.604 1.723-1.736 2.584-3.826 2.584-6.271 0-2.472-.861-4.57-2.584-6.292-1.722-1.722-3.819-2.583-6.291-2.583a9.12 9.12 0 0 0-2.375.313c-.778.208-1.5.506-2.167.895a11.875 11.875 0 0 1 2.125 3.521c.5 1.292.75 2.674.75 4.146s-.25 2.854-.75 4.146a11.875 11.875 0 0 1-2.125 3.521 8.784 8.784 0 0 0 2.167.895 9.12 9.12 0 0 0 2.375.313Zm-6.667-3a8.64 8.64 0 0 0 1.625-2.687A8.83 8.83 0 0 0 22.208 20a8.776 8.776 0 0 0-.583-3.208c-.389-1-.93-1.889-1.625-2.667a8.64 8.64 0 0 0-1.625 2.687A8.83 8.83 0 0 0 17.792 20c0 1.139.194 2.208.583 3.208.389 1 .93 1.889 1.625 2.667Zm-6.667 3a9.12 9.12 0 0 0 2.375-.313 8.784 8.784 0 0 0 2.167-.895 11.875 11.875 0 0 1-2.125-3.521C15.25 22.854 15 21.472 15 20s.25-2.854.75-4.146a11.875 11.875 0 0 1 2.125-3.521 8.784 8.784 0 0 0-2.167-.895 9.12 9.12 0 0 0-2.375-.313c-2.472 0-4.569.861-6.291 2.583-1.723 1.723-2.584 3.82-2.584 6.292 0 2.445.861 4.535 2.584 6.271 1.722 1.736 3.819 2.604 6.291 2.604Zm0 2.792c-3.25 0-6.007-1.132-8.271-3.396C2.799 26.007 1.667 23.25 1.667 20c0-3.25 1.132-6.007 3.395-8.271 2.264-2.264 5.021-3.396 8.271-3.396 1.25 0 2.438.18 3.563.542 1.125.361 2.16.875 3.104 1.542.945-.667 1.98-1.18 3.104-1.542a11.583 11.583 0 0 1 3.563-.542c3.25 0 6.007 1.132 8.271 3.396 2.263 2.264 3.395 5.021 3.395 8.271 0 3.25-1.132 6.007-3.395 8.271-2.264 2.264-5.021 3.396-8.271 3.396-1.25 0-2.438-.18-3.563-.542A11.39 11.39 0 0 1 20 29.583a11.39 11.39 0 0 1-3.104 1.542 11.585 11.585 0 0 1-3.563.542Z"/>

</symbol>
<symbol id="40px-instagram" viewBox="0 0 40 40">
    <path fill-rule="evenodd" d="M20 14.227a5.772 5.772 0 1 0 0 11.546 5.772 5.772 0 1 0 0-11.546Zm0 9.527A3.759 3.759 0 0 1 16.246 20 3.759 3.759 0 0 1 20 16.246 3.759 3.759 0 0 1 23.755 20 3.759 3.759 0 0 1 20 23.755Z" clip-rule="evenodd"/>
    <path d="M27.355 13.996a1.35 1.35 0 1 1-2.7 0 1.35 1.35 0 0 1 2.7 0Z"/>
    <path fill-rule="evenodd" d="M20 8.75c-3.06 0-3.433.013-4.641.064-1.196.065-2.019.245-2.726.527a5.389 5.389 0 0 0-1.993 1.299 5.389 5.389 0 0 0-1.299 1.993c-.282.707-.462 1.53-.527 2.726C8.763 16.567 8.75 16.94 8.75 20s.013 3.433.064 4.641c.052 1.196.245 2.019.527 2.726a5.389 5.389 0 0 0 1.299 1.993 5.39 5.39 0 0 0 1.993 1.299c.72.282 1.53.462 2.726.527 1.195.051 1.581.064 4.641.064s3.433-.013 4.641-.064c1.196-.052 2.019-.245 2.726-.527a5.39 5.39 0 0 0 1.993-1.299 5.39 5.39 0 0 0 1.299-1.993c.282-.72.462-1.53.527-2.726.051-1.195.064-1.581.064-4.641s-.013-3.433-.064-4.641c-.052-1.196-.245-2.019-.527-2.726a5.39 5.39 0 0 0-1.299-1.993 5.389 5.389 0 0 0-1.993-1.299c-.72-.282-1.53-.462-2.726-.527C23.433 8.763 23.06 8.75 20 8.75Zm0 2.031c3.009 0 3.356.013 4.551.065 1.093.051 1.698.231 2.083.385.527.206.9.45 1.299.836.398.399.643.772.836 1.299.154.398.334.99.385 2.083.052 1.182.065 1.542.065 4.551 0 3.009-.013 3.356-.065 4.551-.051 1.093-.231 1.698-.385 2.083-.206.527-.45.9-.836 1.299a3.323 3.323 0 0 1-1.299.836c-.398.154-.99.334-2.083.385-1.182.052-1.542.065-4.551.065-3.009 0-3.356-.013-4.551-.065-1.093-.051-1.698-.231-2.083-.385a3.64 3.64 0 0 1-1.299-.836 3.324 3.324 0 0 1-.836-1.299c-.154-.398-.334-.99-.385-2.083-.052-1.182-.065-1.542-.065-4.551 0-3.009.013-3.356.065-4.551.051-1.093.231-1.698.385-2.083.206-.527.45-.9.836-1.299a3.324 3.324 0 0 1 1.299-.836c.398-.154.99-.334 2.083-.385 1.195-.052 1.542-.065 4.551-.065Z" clip-rule="evenodd"/>

</symbol>
<symbol id="40px-manufactoring" viewBox="0 0 40 40">
    <path d="M6.833 35v-4.292h5.25L7.708 16.042c-.833-.417-1.5-1-2-1.75s-.75-1.667-.75-2.75c0-1.333.48-2.48 1.438-3.438.958-.958 2.104-1.437 3.437-1.437 1.195 0 2.202.32 3.021.958.82.639 1.368 1.486 1.646 2.542h5.833V7.958c0-.36.139-.68.417-.958a1.364 1.364 0 0 1 1-.417c.278 0 .528.097.75.292.222.195.361.43.417.708l3-2.875c.25-.25.548-.41.895-.479.347-.07.688-.02 1.021.146L34.417 7.5c.277.139.465.347.562.625.097.278.077.556-.062.833-.14.306-.348.494-.625.563-.278.07-.556.035-.834-.104l-6.291-3-4.042 3.958v2.25l4.042 4.042 6.291-3.042a1.1 1.1 0 0 1 .834-.083c.277.083.486.278.625.583a.935.935 0 0 1 .083.854 1.14 1.14 0 0 1-.625.646l-6.417 3.042c-.36.194-.722.27-1.083.229a1.692 1.692 0 0 1-.958-.438l-3-2.916c-.056.333-.195.583-.417.75-.222.167-.472.25-.75.25a1.4 1.4 0 0 1-1-.396 1.296 1.296 0 0 1-.417-.979v-2.209h-5.875c-.027.278-.117.57-.27.875-.153.306-.341.57-.563.792l8.458 16.083H28.5V35H6.833Zm3-21.333c.611 0 1.118-.201 1.521-.604.403-.403.604-.91.604-1.521 0-.583-.201-1.076-.604-1.479-.403-.403-.91-.605-1.521-.605a2.01 2.01 0 0 0-1.479.605 2.011 2.011 0 0 0-.604 1.479c0 .61.201 1.118.604 1.521.403.403.896.604 1.479.604Zm5.209 17.041h3.916l-7.625-14.625c-.055.028-.16.063-.312.105-.153.041-.27.076-.354.104l4.375 14.416Z"/>

</symbol>
<symbol id="40px-medicine" viewBox="0 0 40 40">
    <path d="M17.917 28.375h4.166v-6.292h6.292v-4.166h-6.292v-6.292h-4.166v6.292h-6.292v4.166h6.292v6.292ZM7.792 35c-.75 0-1.403-.278-1.959-.833C5.278 33.611 5 32.958 5 32.208V7.792c0-.75.278-1.403.833-1.959C6.389 5.278 7.042 5 7.792 5h24.416c.75 0 1.403.278 1.959.833.555.556.833 1.209.833 1.959v24.416c0 .75-.278 1.403-.833 1.959-.556.555-1.209.833-1.959.833H7.792Zm0-2.792h24.416V7.792H7.792v24.416Zm0-24.416v24.416V7.792Z"/>

</symbol>
<symbol id="40px-twitter" viewBox="0 0 40 40">
    <path d="M15.36 31.25c9.43 0 14.593-8.169 14.593-15.247 0-.227 0-.453-.014-.694a10.647 10.647 0 0 0 2.561-2.775c-.921.425-1.91.708-2.954.85a5.404 5.404 0 0 0 2.263-2.973 9.766 9.766 0 0 1-3.266 1.302C27.608 10.651 26.281 10 24.803 10c-2.832 0-5.135 2.407-5.135 5.366 0 .424.054.82.136 1.217-4.255-.212-8.036-2.364-10.57-5.606a5.551 5.551 0 0 0-.69 2.704c0 1.855.907 3.497 2.276 4.46a4.978 4.978 0 0 1-2.317-.666v.07c0 2.592 1.775 4.772 4.105 5.253-.433.128-.88.184-1.355.184-.325 0-.65-.028-.962-.099.65 2.138 2.548 3.681 4.797 3.723A9.994 9.994 0 0 1 8.72 28.9c-.407 0-.827-.014-1.22-.07a13.979 13.979 0 0 0 7.86 2.42Z"/>

</symbol>
<symbol id="arrow-drop-down" viewBox="0 0 24 24">
    <path d="M7 10l5 5 5-5H7z"/>

</symbol>
<symbol id="arrow-drop-up" viewBox="0 0 24 24">
    <path d="M7 15l5-5 5 5H7z"/>

</symbol>
<symbol id="arrow-forward" viewBox="0 0 24 24">
    <path d="M12 4l-1.41 1.41L16.17 11H4v2h12.17l-5.58 5.59L12 20l8-8-8-8z"/>

</symbol>
<symbol id="arrow-left" viewBox="0 0 24 24">
    <path d="M14 7l-5 5 5 5V7z"/>

</symbol>
<symbol id="arrow-right" viewBox="0 0 24 24">
    <path d="M10 17l5-5-5-5v10z"/>

</symbol>
<symbol id="attachment" viewBox="0 0 24 24">
    <path d="M18 16H6.5c-2.21 0-4-1.79-4-4s1.79-4 4-4H19a2.5 2.5 0 010 5H8.5c-.55 0-1-.45-1-1s.45-1 1-1H18V9.5H8.5a2.5 2.5 0 000 5H19c2.21 0 4-1.79 4-4s-1.79-4-4-4H6.5C3.46 6.5 1 8.96 1 12s2.46 5.5 5.5 5.5H18V16z"/>

</symbol>
<symbol id="bar" viewBox="0 0 32 32">
    <path d="M3 13a3 3 0 116 0v12a3 3 0 11-6 0V13zM13 6a3 3 0 116 0v19a3 3 0 11-6 0V6zM23 18a3 3 0 116 0v7a3 3 0 11-6 0v-7z"/>

</symbol>
<symbol id="chevron-left" viewBox="0 0 24 24">
    <path d="M15.705 7.41L14.295 6l-6 6 6 6 1.41-1.41-4.58-4.59 4.58-4.59z"/>

</symbol>
<symbol id="chevron-right" viewBox="0 0 24 24">
    <path d="M9.705 6l-1.41 1.41 4.58 4.59-4.58 4.59L9.705 18l6-6-6-6z"/>

</symbol>
<symbol id="close" viewBox="0 0 24 24">
    <path d="M19 6.41L17.59 5 12 10.59 6.41 5 5 6.41 10.59 12 5 17.59 6.41 19 12 13.41 17.59 19 19 17.59 13.41 12 19 6.41z"/>

</symbol>
<symbol id="credit-card" viewBox="0 0 24 24">
    <path fill-rule="evenodd" d="M20 4H4c-1.11 0-1.99.89-1.99 2L2 18c0 1.11.89 2 2 2h16c1.11 0 2-.89 2-2V6c0-1.11-.89-2-2-2zm0 14H4v-6h16v6zM4 8h16V6H4v2z" clip-rule="evenodd"/>

</symbol>
<symbol id="delete" viewBox="0 0 24 24">
    <path fill-rule="evenodd" d="M14.5 3h-5l-1 1H5v2h14V4h-3.5l-1-1zM16 9v10H8V9h8zM6 7h12v12c0 1.1-.9 2-2 2H8c-1.1 0-2-.9-2-2V7z" clip-rule="evenodd"/>

</symbol>
<symbol id="download" viewBox="0 0 24 24">
    <path fill-rule="evenodd" d="M19 10h-4V4H9v6H5l7 7 7-7zm-8 2V6h2v6h1.17L12 14.17 9.83 12H11zm8 9v-2H5v2h14z" clip-rule="evenodd"/>

</symbol>
<symbol id="expand-less" viewBox="0 0 24 24">
    <path d="M12 8.295l-6 6 1.41 1.41 4.59-4.58 4.59 4.58 1.41-1.41-6-6z"/>

</symbol>
<symbol id="expand-more" viewBox="0 0 24 24">
    <path d="M16.59 8.295L12 12.875l-4.59-4.58L6 9.705l6 6 6-6-1.41-1.41z"/>

</symbol>
<symbol id="eye" viewBox="0 0 24 24">
    <path fill-rule="evenodd" d="M1 12c1.73-4.39 6-7.5 11-7.5s9.27 3.11 11 7.5c-1.73 4.39-6 7.5-11 7.5S2.73 16.39 1 12zm19.82 0A9.77 9.77 0 0012 6.5 9.77 9.77 0 003.18 12 9.76 9.76 0 0012 17.5c3.8 0 7.17-2.13 8.82-5.5zM12 9.5a2.5 2.5 0 010 5 2.5 2.5 0 010-5zM7.5 12c0-2.48 2.02-4.5 4.5-4.5s4.5 2.02 4.5 4.5-2.02 4.5-4.5 4.5-4.5-2.02-4.5-4.5z" clip-rule="evenodd"/>

</symbol>
<symbol id="layers" viewBox="0 0 24 24">
    <path fill-rule="evenodd" d="M12 16.465l7.36-5.73L21 9.465l-9-7-9 7 1.63 1.27 7.37 5.73zm-.01 2.54l-7.37-5.73L3 14.535l9 7 9-7-1.63-1.27-7.38 5.74zm5.75-9.54L12 4.995l-5.74 4.47 5.74 4.47 5.74-4.47z" clip-rule="evenodd"/>

</symbol>
<symbol id="logout" viewBox="0 0 24 24">
    <path fill-rule="evenodd" d="M23 12L19 8V11H11V13H19V16L23 12ZM21 18C19.7407 19.6791 17.985 20.9193 15.9817 21.5451C13.9783 22.1709 11.8288 22.1505 9.83772 21.4868C7.8466 20.8231 6.11478 19.5498 4.88758 17.8471C3.66037 16.1444 3 14.0988 3 12C3 9.90118 3.66037 7.85555 4.88758 6.1529C6.11478 4.45024 7.8466 3.17687 9.83772 2.51317C11.8288 1.84946 13.9783 1.82906 15.9817 2.45486C17.985 3.08067 19.7407 4.32094 21 6H18.27C17.1153 4.98166 15.6913 4.31814 14.1689 4.08906C12.6464 3.85997 11.0902 4.07506 9.68699 4.7085C8.28376 5.34194 7.09312 6.36683 6.25793 7.66019C5.42274 8.95354 4.9785 10.4604 4.9785 12C4.9785 13.5396 5.42274 15.0465 6.25793 16.3398C7.09312 17.6332 8.28376 18.6581 9.68699 19.2915C11.0902 19.9249 12.6464 20.14 14.1689 19.9109C15.6913 19.6819 17.1153 19.0183 18.27 18H21Z" clip-rule="evenodd"/>

</symbol>
<symbol id="long-arrow" viewBox="0 0 57 11">
    <path d="M53.103 6.107H0V4.07h53.103l-2.627-2.628 1.439-1.44L57 5.09l-5.095 5.095-1.44-1.44 2.638-2.637z"/>

</symbol>
<symbol id="more" viewBox="0 0 24 24">
    <path fill-rule="evenodd" d="M6 10c-1.1 0-2 .9-2 2s.9 2 2 2 2-.9 2-2-.9-2-2-2zm12 0c-1.1 0-2 .9-2 2s.9 2 2 2 2-.9 2-2-.9-2-2-2zm-8 2c0-1.1.9-2 2-2s2 .9 2 2-.9 2-2 2-2-.9-2-2z" clip-rule="evenodd"/>

</symbol>
<symbol id="my-account" viewBox="0 0 24 24">
    <path fill-rule="evenodd" d="M12 2C6.48 2 2 6.48 2 12s4.48 10 10 10 10-4.48 10-10S17.52 2 12 2zM7.07 18.28c.43-.9 3.05-1.78 4.93-1.78s4.51.88 4.93 1.78A7.893 7.893 0 0112 20c-1.86 0-3.57-.64-4.93-1.72zM12 14.5c1.46 0 4.93.59 6.36 2.33A7.95 7.95 0 0020 12c0-4.41-3.59-8-8-8s-8 3.59-8 8c0 1.82.62 3.49 1.64 4.83 1.43-1.74 4.9-2.33 6.36-2.33zM12 6c-1.94 0-3.5 1.56-3.5 3.5S10.06 13 12 13s3.5-1.56 3.5-3.5S13.94 6 12 6zm-1.5 3.5c0 .83.67 1.5 1.5 1.5s1.5-.67 1.5-1.5S12.83 8 12 8s-1.5.67-1.5 1.5z" clip-rule="evenodd"/>

</symbol>
<symbol id="notifications-none" viewBox="0 0 24 24">
    <path fill-rule="evenodd" d="M18 15.75v-5c0-3.07-1.63-5.64-4.5-6.32v-.68c0-.83-.67-1.5-1.5-1.5s-1.5.67-1.5 1.5v.68C7.64 5.11 6 7.67 6 10.75v5l-2 2v1h16v-1l-2-2zm-6 6c1.1 0 2-.9 2-2h-4c0 1.1.9 2 2 2zm-4-5h8v-6c0-2.48-1.51-4.5-4-4.5s-4 2.02-4 4.5v6z" clip-rule="evenodd"/>

</symbol>
<symbol id="open-in-new" viewBox="0 0 24 24">
    <path fill-rule="evenodd" d="M5 5v14h14v-7h2v7c0 1.1-.9 2-2 2H5a2 2 0 01-2-2V5a2 2 0 012-2h7v2H5zm9 0V3h7v7h-2V6.41l-9.83 9.83-1.41-1.41L17.59 5H14z" clip-rule="evenodd"/>

</symbol>
<symbol id="order-list" viewBox="0 0 24 24">
    <path fill-rule="evenodd" d="M4 7V5h16v2H4zm0 2h16v2H4V9zm0 8h10v2H4v-2zm0-2h16v-2H4v2z" clip-rule="evenodd"/>

</symbol>
<symbol id="pie" viewBox="0 0 32 32">
    <path d="M17.075.974c0-.579.49-1.04 1.063-.966C25.345.939 31.06 6.653 31.991 13.86c.074.574-.388 1.064-.966 1.064h-3.081c-.517 0-.944-.396-1.034-.904a11.043 11.043 0 00-8.931-8.93c-.509-.09-.904-.517-.904-1.034V.974zM14.16 5.082c.51-.089.908-.516.908-1.034V.974c0-.578-.49-1.04-1.063-.965C6.117 1.027 0 7.768 0 15.929c0 3.687 1.258 7.08 3.356 9.793.354.458 1.026.477 1.435.068l2.132-2.132c.365-.366.388-.948.09-1.37a10.981 10.981 0 01-1.998-6.335c0-5.45 3.95-9.976 9.144-10.871zM9.713 24.987c-.423-.297-1.005-.275-1.37.09L6.21 27.21c-.409.41-.39 1.081.068 1.435A15.956 15.956 0 0016.072 32c8.16 0 14.9-6.117 15.92-14.004.074-.574-.387-1.063-.966-1.063h-3.074c-.518 0-.946.397-1.034.908-.895 5.193-5.422 9.144-10.871 9.144-2.357 0-4.541-.739-6.334-1.998z"/>

</symbol>
<symbol id="rate-review" viewBox="0 0 24 24">
    <path fill-rule="evenodd" d="M4 2h16c1.1 0 2 .9 2 2v12c0 1.1-.9 2-2 2H6l-4 4 .01-18c0-1.1.89-2 1.99-2zm1.17 14H20V4H4v13.17L5.17 16zm5.33-2H18v-2h-5.5l-2 2zm3.86-6.58c.2.2.2.51 0 .71L8.47 14H6v-2.47l5.88-5.88c.2-.2.51-.2.71 0l1.77 1.77z" clip-rule="evenodd"/>

</symbol>
<symbol id="refresh" viewBox="0 0 16 16">
  <path d="M12.9425 3.05625C11.6729 1.7875 9.93058 1 7.99562 1C4.1257 1 1 4.1325 1 8C1 11.8675 4.1257 15 7.99562 15C11.2614 15 13.9844 12.7688 14.7636 9.75H12.9425C12.2245 11.7887 10.2808 13.25 7.99562 13.25C5.09756 13.25 2.74234 10.8962 2.74234 8C2.74234 5.10375 5.09756 2.75 7.99562 2.75C9.44903 2.75 10.7448 3.35375 11.6904 4.3075L8.87117 7.125H15V1L12.9425 3.05625Z"/>

</symbol>
<symbol id="scatter" viewBox="0 0 32 32">
    <path d="M30 5a3 3 0 11-6 0 3 3 0 016 0zM12 8a3 3 0 11-6 0 3 3 0 016 0zM14 18a3 3 0 100-6 3 3 0 000 6zM18 26a3 3 0 100-6 3 3 0 000 6zM24 18a3 3 0 100-6 3 3 0 000 6zM7 30a3 3 0 100-6 3 3 0 000 6z"/>

</symbol>
<symbol id="search" viewBox="0 0 24 24">
    <path fill-rule="evenodd" d="M16.052 15.32h.813L20 18.468 18.467 20l-3.146-3.136v-.813l-.278-.288a6.66 6.66 0 01-4.353 1.616 6.69 6.69 0 116.69-6.69 6.66 6.66 0 01-1.617 4.354l.289.278zm-9.994-4.63a4.625 4.625 0 004.632 4.63 4.625 4.625 0 004.63-4.63 4.625 4.625 0 00-4.63-4.632 4.625 4.625 0 00-4.632 4.632z" clip-rule="evenodd"/>

</symbol>
<symbol id="settings" viewBox="0 0 24 24">
    <path fill-rule="evenodd" d="M19.5022 12C19.5022 12.34 19.4722 12.66 19.4322 12.98L21.5422 14.63C21.7322 14.78 21.7822 15.05 21.6622 15.27L19.6622 18.73C19.5722 18.89 19.4022 18.98 19.2322 18.98C19.1722 18.98 19.1122 18.97 19.0522 18.95L16.5622 17.95C16.0422 18.34 15.4822 18.68 14.8722 18.93L14.4922 21.58C14.4622 21.82 14.2522 22 14.0022 22H10.0022C9.75221 22 9.54221 21.82 9.51221 21.58L9.13221 18.93C8.52221 18.68 7.96221 18.35 7.44221 17.95L4.95221 18.95C4.90221 18.97 4.84221 18.98 4.78221 18.98C4.60221 18.98 4.43221 18.89 4.34221 18.73L2.34221 15.27C2.22221 15.05 2.27221 14.78 2.46221 14.63L4.57221 12.98C4.53221 12.66 4.50221 12.33 4.50221 12C4.50221 11.67 4.53221 11.34 4.57221 11.02L2.46221 9.37C2.27221 9.22 2.21221 8.95 2.34221 8.73L4.34221 5.27C4.43221 5.11 4.60221 5.02 4.77221 5.02C4.83221 5.02 4.89221 5.03 4.95221 5.05L7.44221 6.05C7.96221 5.66 8.52221 5.32 9.13221 5.07L9.51221 2.42C9.54221 2.18 9.75221 2 10.0022 2H14.0022C14.2522 2 14.4622 2.18 14.4922 2.42L14.8722 5.07C15.4822 5.32 16.0422 5.65 16.5622 6.05L19.0522 5.05C19.1022 5.03 19.1622 5.02 19.2222 5.02C19.4022 5.02 19.5722 5.11 19.6622 5.27L21.6622 8.73C21.7822 8.95 21.7322 9.22 21.5422 9.37L19.4322 11.02C19.4722 11.34 19.5022 11.66 19.5022 12ZM17.5022 12C17.5022 11.79 17.4922 11.58 17.4522 11.27L17.3122 10.14L18.2022 9.44L19.2722 8.59L18.5722 7.38L17.3022 7.89L16.2422 8.32L15.3322 7.62C14.9322 7.32 14.5322 7.09 14.1022 6.91L13.0422 6.48L12.6922 4H11.3022L11.1022 5.35L10.9422 6.48L9.88221 6.91C9.47221 7.08 9.06221 7.32 8.63221 7.64L7.73221 8.32L6.69221 7.9L5.42221 7.39L4.72221 8.6L5.80221 9.44L6.69221 10.14L6.55221 11.27C6.52221 11.57 6.50221 11.8 6.50221 12C6.50221 12.2 6.52221 12.43 6.55221 12.74L6.69221 13.87L5.80221 14.57L4.72221 15.41L5.42221 16.62L6.69221 16.11L7.75221 15.68L8.66221 16.38C9.06221 16.68 9.46221 16.91 9.89221 17.09L10.9522 17.52L11.3022 20H12.7022L12.9022 18.65L13.0622 17.52L14.1222 17.09C14.5322 16.92 14.9422 16.68 15.3722 16.36L16.2722 15.68L17.3122 16.1L18.5822 16.61L19.2822 15.4L18.2022 14.56L17.3122 13.86L17.4522 12.73C17.4822 12.43 17.5022 12.21 17.5022 12ZM12.0022 8C9.79221 8 8.00221 9.79 8.00221 12C8.00221 14.21 9.79221 16 12.0022 16C14.2122 16 16.0022 14.21 16.0022 12C16.0022 9.79 14.2122 8 12.0022 8ZM10.0022 12C10.0022 13.1 10.9022 14 12.0022 14C13.1022 14 14.0022 13.1 14.0022 12C14.0022 10.9 13.1022 10 12.0022 10C10.9022 10 10.0022 10.9 10.0022 12Z" clip-rule="evenodd"/>

</symbol>
<symbol id="shopping-cart" viewBox="0 0 24 24">
    <path fill-rule="evenodd" d="M18.296 11.97c-.34.62-1 1.03-1.75 1.03h-7.45l-1.1 2h12v2h-12c-1.52 0-2.48-1.63-1.75-2.97l1.35-2.44L3.996 4h-2V2h3.27l.94 2h14.8c.76 0 1.24.82.87 1.48l-3.58 6.49zM19.306 6H7.156l2.37 5h7.02l2.76-5zM7.996 18c-1.1 0-1.99.9-1.99 2s.89 2 1.99 2 2-.9 2-2-.9-2-2-2zm8.01 2c0-1.1.89-2 1.99-2s2 .9 2 2-.9 2-2 2-1.99-.9-1.99-2z" clip-rule="evenodd"/>

</symbol>
<symbol id="small-arrow" viewBox="0 0 32 32">
    <path d="M14.761 12.31l2.6 2.724H11v1.932h6.36l-2.599 2.725L16.23 21 21 16l-4.77-5-1.469 1.31z"/>
    <path fill-rule="evenodd" d="M32 16c0 8.837-7.163 16-16 16S0 24.837 0 16 7.163 0 16 0s16 7.163 16 16zm-2 0c0 7.732-6.268 14-14 14S2 23.732 2 16 8.268 2 16 2s14 6.268 14 14z" clip-rule="evenodd"/>

</symbol>
<symbol id="small-spinner" viewBox="0 0 24 24">
    <path fill-rule="evenodd" d="M11 3a1 1 0 011-1c5.523 0 10 4.477 10 10s-4.477 10-10 10S2 17.523 2 12a1 1 0 112 0 8 8 0 108-8 1 1 0 01-1-1z" clip-rule="evenodd"/>

</symbol>
<symbol id="star-border" viewBox="0 0 24 24">
    <path fill-rule="evenodd" d="M14.81 9.12l7.19.62-5.45 4.73 1.63 7.03L12 17.77 5.82 21.5l1.64-7.03L2 9.74l7.19-.61L12 2.5l2.81 6.62zm-6.57 9.05L12 15.9l3.77 2.28-1-4.28 3.32-2.88-4.38-.38L12 6.6l-1.7 4.03-4.38.38 3.32 2.88-1 4.28z" clip-rule="evenodd"/>

</symbol>
<symbol id="star-half" viewBox="0 0 24 24">
    <path fill-rule="evenodd" d="M14.81 9.12l7.19.62-5.45 4.73 1.63 7.03L12 17.77 5.82 21.5l1.64-7.03L2 9.74l7.19-.61L12 2.5l2.81 6.62zM12 6.6v9.3l3.77 2.28-1-4.28 3.32-2.88-4.38-.38L12 6.6z" clip-rule="evenodd"/>

</symbol>
<symbol id="star-solid" viewBox="0 0 24 24">
    <path d="M12 17.27L18.18 21l-1.64-7.03L22 9.24l-7.19-.61L12 2 9.19 8.63 2 9.24l5.46 4.73L5.82 21 12 17.27z"/>

</symbol>
<symbol id="status-approved" viewBox="0 0 40 40">
    <path fill-rule="evenodd" d="M39 20c0 10.493-8.507 19-19 19S1 30.493 1 20 9.507 1 20 1s19 8.507 19 19zm1 0c0 11.046-8.954 20-20 20S0 31.046 0 20 8.954 0 20 0s20 8.954 20 20zm-30 0c0-5.52 4.48-10 10-10s10 4.48 10 10-4.48 10-10 10-10-4.48-10-10zm3.7.7l3.59 3.59c.39.39 1.03.39 1.41 0l7.59-7.59a.996.996 0 10-1.41-1.41L18 22.17l-2.89-2.88a.996.996 0 10-1.41 1.41z" clip-rule="evenodd"/>

</symbol>
<symbol id="status-declined" viewBox="0 0 40 40">
    <path fill-rule="evenodd" d="M39 20c0 10.493-8.507 19-19 19S1 30.493 1 20 9.507 1 20 1s19 8.507 19 19zm1 0c0 11.046-8.954 20-20 20S0 31.046 0 20 8.954 0 20 0s20 8.954 20 20zm-10.74 5.504c.77 1.33-.19 3-1.73 3H12.47c-1.54 0-2.5-1.67-1.73-3l7.53-13.01c.77-1.33 2.69-1.33 3.46 0l7.53 13.01zm-10.26-5c0 .55.45 1 1 1s1-.45 1-1v-2c0-.55-.45-1-1-1s-1 .45-1 1v2zm0 5v-2h2v2h-2z" clip-rule="evenodd"/>

</symbol>
<symbol id="status-new" viewBox="0 0 40 40">
    <path fill-rule="evenodd" d="M39 20c0 10.493-8.507 19-19 19S1 30.493 1 20 9.507 1 20 1s19 8.507 19 19zm1 0c0 11.046-8.954 20-20 20S0 31.046 0 20 8.954 0 20 0s20 8.954 20 20zm-16.72 6.237L20 23.85l-3.28 2.387c-.52.373-1.227-.133-1.027-.747l1.254-3.853-3.24-2.307c-.534-.373-.267-1.213.386-1.213h3.974l1.306-4.027c.2-.613 1.067-.613 1.267 0l1.293 4.027h3.974c.653 0 .92.84.386 1.213l-3.24 2.307 1.254 3.853c.2.614-.507 1.134-1.027.747z" clip-rule="evenodd"/>

</symbol>
<symbol id="status-processing" viewBox="0 0 40 40">
    <path fill-rule="evenodd" d="M39 20c0 10.493-8.507 19-19 19S1 30.493 1 20 9.507 1 20 1s19 8.507 19 19zm1 0c0 11.046-8.954 20-20 20S0 31.046 0 20 8.954 0 20 0s20 8.954 20 20zm-30 0c0-5.52 4.48-10 10-10s10 4.48 10 10-4.48 10-10 10-10-4.48-10-10zm10-6c1.54 0 3.07.59 4.24 1.76a5.99 5.99 0 01.01 8.48c-2.35 2.34-6.15 2.34-8.49 0L20 20v-6zm0 14c-4.42 0-8-3.58-8-8s3.58-8 8-8 8 3.58 8 8-3.58 8-8 8z" clip-rule="evenodd"/>

</symbol>
<symbol id="status-published" viewBox="0 0 40 40">
    <path fill-rule="evenodd" d="M39 20c0 10.493-8.507 19-19 19S1 30.493 1 20 9.507 1 20 1s19 8.507 19 19zm1 0c0 11.046-8.954 20-20 20S0 31.046 0 20 8.954 0 20 0s20 8.954 20 20zm-30 0c0-5.52 4.48-10 10-10s10 4.48 10 10-4.48 10-10 10-10-4.48-10-10zm2 0c0 4.08 3.05 7.44 7 7.93V26c-1.1 0-2-.9-2-2v-1l-4.79-4.79c-.13.58-.21 1.17-.21 1.79zm13.9 5.39c-.26-.81-1-1.39-1.9-1.39h-1v-3c0-.55-.45-1-1-1h-6v-2h2c.55 0 1-.45 1-1v-2h2c1.1 0 2-.9 2-2v-.41c2.93 1.19 5 4.06 5 7.41 0 2.08-.8 3.97-2.1 5.39z" clip-rule="evenodd"/>

</symbol>
<symbol id="status-rejected" viewBox="0 0 40 40">
    <path fill-rule="evenodd" d="M39 20c0 10.493-8.507 19-19 19S1 30.493 1 20 9.507 1 20 1s19 8.507 19 19zm1 0c0 11.046-8.954 20-20 20S0 31.046 0 20 8.954 0 20 0s20 8.954 20 20zM20 10c-5.53 0-10 4.47-10 10s4.47 10 10 10 10-4.47 10-10-4.47-10-10-10zm4.3 14.3a.996.996 0 01-1.41 0L20 21.41l-2.89 2.89a.996.996 0 11-1.41-1.41L18.59 20l-2.89-2.89a.996.996 0 010-1.41.996.996 0 011.41 0L20 18.59l2.89-2.89a.996.996 0 111.41 1.41L21.41 20l2.89 2.89c.38.38.38 1.02 0 1.41z" clip-rule="evenodd"/>

</symbol>
<symbol id="store" viewBox="0 0 24 24">
    <path fill-rule="evenodd" d="M4 4h16v2H4V4zm14.96 8l-.6-3H5.64l-.6 3h13.92zM20 7H4l-1 5v2h1v6h10v-6h4v6h2v-6h1v-2l-1-5zM6 14v4h6v-4H6z" clip-rule="evenodd"/>

</symbol></svg>