<svg width="184" height="24" viewBox="0 0 184 24" fill="none" xmlns="http://www.w3.org/2000/svg">
<path fill-rule="evenodd" clip-rule="evenodd" d="M17.8407 0.108606C11.2139 0.784603 4.31051 4.19896 1.57593 8.15183C-1.26776 12.2632 -0.271481 16.1516 4.63388 20.0887C9.70611 24.159 15.0721 25.1219 18.9135 22.6504C24.554 19.0213 28.2962 6.75448 25.1252 2.28889C23.7508 0.353512 21.6373 -0.279042 17.8407 0.108606ZM117.555 5.56289C114.497 6.03743 112.95 8.06112 112.851 11.7175C112.731 16.1459 114.744 18.5181 118.624 18.519C122.907 18.52 125.383 14.8478 124.312 10.0867C123.577 6.81941 120.92 5.04109 117.555 5.56289ZM178.65 5.59392C177.42 5.79539 176.455 6.18256 175.677 6.78647C172.423 9.31143 172.466 15.4594 175.753 17.5513C177.579 18.7133 180.701 18.8909 183.381 17.9853L183.957 17.7905L183.978 14.9132L184 12.0359H181.572H179.144V12.4336V12.8318H181.077H183.011V15.024V17.2157L182.707 17.3389C181.147 17.9691 178.341 17.8459 176.836 17.0811C173.278 15.2732 173.497 8.6531 177.172 6.91727C178.783 6.15678 180.895 6.11381 182.707 6.80461C183.553 7.12685 183.494 7.13449 183.682 6.67285C183.87 6.21025 183.871 6.21072 183.134 5.99207C181.761 5.58438 179.78 5.40869 178.65 5.59392ZM34.2857 5.71996C32.1678 6.08946 31.1582 7.26959 31.1582 9.37445V10.492L31.4687 11.1007C31.9382 12.0197 32.7627 12.595 34.7947 13.4228C36.3751 14.0663 36.9157 14.6297 36.501 15.2021C35.8942 16.0394 33.721 15.8633 31.1374 14.7676C31.057 14.7337 31.0348 15.0588 31.0348 16.249V17.7733L31.4771 17.9695C34.3899 19.259 38.7754 18.394 39.7756 16.3325C40.8292 14.1604 39.9006 12.0622 37.3738 10.9074C34.7982 9.73059 34.655 9.63845 34.655 9.16201C34.655 8.24397 36.067 8.14085 38.3133 8.89419C38.7646 9.04552 39.1566 9.14291 39.1852 9.11092C39.2365 9.05316 40.1681 6.57641 40.1681 6.49812C40.1681 6.41982 39.1329 5.99351 38.652 5.8732C37.4676 5.57769 35.4973 5.50847 34.2857 5.71996ZM62.8485 7.71931C61.5323 11.5657 59.2574 18.2999 59.2574 18.3505C59.2574 18.3787 60.1455 18.4011 61.2307 18.4011H63.204L63.2558 18.1825C63.284 18.0622 63.3916 17.6234 63.4953 17.2076C63.5984 16.7918 63.7061 16.3535 63.7347 16.2332L63.786 16.0141H65.8803H67.9741L68.1775 16.6705C68.3656 17.2783 68.4589 17.6201 68.5897 18.1825L68.6411 18.4011H70.6144C71.6995 18.4011 72.5872 18.3787 72.5872 18.3505C72.5872 18.2999 70.3127 11.5657 68.996 7.71931L68.295 5.67078H65.9223H63.5501L62.8485 7.71931ZM42.6366 12.0756V18.4011H44.1167H45.5973L45.6185 14.0706L45.6398 9.73966L46.7861 13.5732C47.4166 15.6818 48.0011 17.6306 48.086 17.9041L48.2396 18.4011H49.9596H51.6796L51.8322 17.9041C51.9161 17.6306 52.4829 15.6995 53.0911 13.6123L54.197 9.81843L54.2182 14.1098L54.2399 18.4011H55.8844H57.5294V12.0756V5.75003H55.1479H52.7663L52.4794 6.64516C52.3214 7.13783 51.7043 9.09803 51.1079 11.0014C50.5116 12.9053 50.0159 14.4712 50.006 14.4817C49.9966 14.4922 49.4595 12.7554 48.8118 10.6228C48.1645 8.48983 47.5642 6.52103 47.4773 6.24748L47.3198 5.75003H44.9782H42.6366V12.0756ZM74.48 12.0703V18.4011H76.2079H77.9359V16.1296V13.8582L78.398 13.8821L78.8605 13.9059L80.1965 16.1335L81.5329 18.3615L83.5605 18.383C84.6758 18.3944 85.5882 18.3863 85.5882 18.3648C85.5882 18.3433 84.7908 17.1427 83.8163 15.6971C81.7403 12.6184 81.8849 12.8938 82.2355 12.6843C84.6679 11.2306 84.6388 7.5441 82.1861 6.4203C80.9311 5.84551 80.6137 5.80255 77.3805 5.76913L74.48 5.73905V12.0703ZM86.2462 7.14261V8.53518H87.8098H89.3728V13.4681V18.4011H91.1832H92.9936V13.4681V8.53518H94.5566H96.1202V7.14261V5.75003H91.1832H86.2462V7.14261ZM104.019 12.0756V18.4011H104.472H104.924V15.5768V12.752H107.886H110.849V12.3544V11.9562H107.886H104.924V9.25128V6.54586H108.051H111.178V6.14818V5.75003H107.599H104.019V12.0756ZM127.964 12.0756V18.4011H128.416H128.868V15.6546V12.9077L130.445 12.9292L132.022 12.9511L133.723 15.6561L135.424 18.3615L135.972 18.3849C136.274 18.3978 136.521 18.3873 136.521 18.3615C136.521 18.3357 135.762 17.0768 134.834 15.5639C133.906 14.0515 133.147 12.7907 133.148 12.763C133.148 12.7349 133.398 12.5888 133.703 12.4379C136.461 11.074 136.638 7.42714 134.004 6.21645C133.139 5.81878 132.596 5.7529 130.164 5.75147L127.964 5.75003V12.0756ZM139.236 12.0727V18.4011H139.648H140.059L140.066 12.732L140.072 7.06288L140.28 7.50066C140.871 8.7438 142.921 13.6056 144.139 16.651L144.823 18.3615H145.205H145.587L146.244 16.8099C146.605 15.9564 147.685 13.4142 148.643 11.1609L150.386 7.06288L150.406 12.732L150.428 18.4011H150.88H151.332V12.0727V5.74383L150.625 5.76722L149.918 5.79013L147.624 11.232C146.363 14.2248 145.32 16.7016 145.308 16.7355C145.295 16.7694 144.242 14.3208 142.967 11.2936L140.651 5.79013L139.944 5.76722L139.236 5.74383V12.0727ZM155.446 12.0756V18.4011H155.898H156.351V12.0756V5.75003H155.898H155.446V12.0756ZM160.383 12.0718V18.4011H160.794H161.205L161.226 12.8819L161.247 7.36221L165.08 12.8618L168.914 18.3615L169.379 18.3854L169.845 18.4092V12.0799V5.75003H169.394H168.941L168.92 11.2287L168.899 16.7073L165.106 11.2487L161.313 5.79013L160.848 5.76626L160.383 5.74239V12.0718ZM13.5856 5.91187C14.7719 6.01308 14.7176 5.87702 14.0965 7.18796L13.8492 7.71119L12.8352 7.52882C10.9892 7.19703 10.0364 7.37033 9.49728 8.13655C8.96557 8.89132 9.35114 9.40643 11.1048 10.2834C13.0845 11.274 13.5209 12.5396 12.573 14.5418C11.7554 16.2686 8.38301 17.2301 5.53191 16.5488C4.95725 16.4118 4.95873 16.4261 5.43762 15.4794L5.84442 14.675L6.36428 14.8378C7.86413 15.3076 10.1914 15.0383 10.7325 14.3327C11.3486 13.5293 10.9374 12.8294 9.35904 11.9935C7.70072 11.1155 7.29243 10.587 7.30181 9.33053C7.32156 6.74875 9.50222 5.56242 13.5856 5.91187ZM23.0872 6.469C22.7895 7.70355 22.8364 7.68398 20.4588 7.56988C19.4048 7.51975 18.488 7.49827 18.4213 7.52309C18.213 7.60043 17.4581 9.95067 17.4581 10.5226C17.4581 10.5751 18.0723 10.6038 19.1964 10.6038H20.9342L20.8819 10.8582C20.754 11.476 20.639 11.7571 20.4312 11.9581L20.2085 12.1734L18.6341 12.1333L17.0597 12.0937L16.9249 12.5224C16.801 12.9168 16.059 15.6871 15.942 16.1931L15.8916 16.4123H14.7907H13.6902L13.8512 15.9148C14.6707 13.3808 15.9731 8.85886 16.3434 7.26196C16.4599 6.75878 16.5739 6.26658 16.5966 6.16776L16.6381 5.98873H19.9207H23.2033L23.0872 6.469ZM119.852 6.58548C122.179 7.0624 123.437 8.97486 123.437 12.0359C123.437 15.5868 121.651 17.6826 118.624 17.6826C115.972 17.6826 114.353 16.1201 113.972 13.1936C113.386 8.69511 115.971 5.79061 119.852 6.58548ZM132.467 6.75114C134.042 7.06575 134.662 7.76991 134.667 9.25128C134.674 11.2936 133.555 12.0359 130.469 12.0359H128.951V9.33053V6.62558H130.395C131.389 6.62558 132.033 6.66425 132.467 6.75114ZM66.5695 10.7627L67.2093 13.1101L66.611 13.1335C66.2817 13.1459 65.7223 13.1459 65.3674 13.1335L64.7216 13.1101L65.3017 10.6615C65.6206 9.31477 65.8922 8.25829 65.9055 8.31415C65.9188 8.37 66.2175 9.47184 66.5695 10.7627ZM79.6352 8.58578C81.0847 9.25128 80.3594 11.1561 78.6557 11.1594L78.0178 11.1609V9.80793V8.45545H78.6843C79.1316 8.45545 79.4441 8.49842 79.6352 8.58578Z" fill="#F7F8FA"/>
</svg>
