<svg width="56" height="56" viewBox="0 0 56 56" fill="none" xmlns="http://www.w3.org/2000/svg">
<path d="M56 28C56 43.464 43.464 56 28 56C12.536 56 0 43.464 0 28C0 12.536 12.536 0 28 0C43.464 0 56 12.536 56 28Z" fill="#EFF2F9"/>
<path d="M22 22C22 18.6987 24.6987 16 28 16C31.3013 16 34 18.6987 34 22C34 25.3013 31.3013 28 28 28C24.6987 28 22 25.3013 22 22Z" fill="#4781E8"/>
<path d="M38.3121 32.3629C38.5629 32.7138 38.7858 33.0916 38.953 33.4964C39.0366 33.6582 39.0087 33.8472 38.8695 34.0091C38.6466 34.3869 38.3957 34.7377 38.1171 35.0886C37.7269 35.6013 37.2811 36.0601 36.8352 36.4918C36.4451 36.8696 35.9992 37.2475 35.5534 37.5713C33.352 39.1634 30.7047 40 27.9739 40C25.243 40 22.5958 39.1635 20.3944 37.5713C19.9485 37.2204 19.5026 36.8696 19.1125 36.4918C18.6388 36.0601 18.2208 35.6013 17.8307 35.0886C17.5799 34.7648 17.3013 34.3869 17.0783 34.0091C16.9947 33.8472 16.9669 33.6583 17.0505 33.4964C17.2176 33.1186 17.4406 32.7138 17.6914 32.3629C18.9453 30.5279 20.9516 29.3135 23.1809 29.0167C23.4595 28.9627 23.7661 29.0436 23.989 29.2056C25.1594 30.0421 26.5527 30.4739 28.0017 30.4739C29.4508 30.4739 30.8441 30.0421 32.0144 29.2056C32.2374 29.0436 32.5439 28.9897 32.8225 29.0167C35.0518 29.3135 37.0302 30.5279 38.3121 32.3629Z" fill="#4781E8"/>
</svg>
